<?xml version="1.0" encoding="utf-8" standalone="no"?>
<!DOCTYPE svg PUBLIC "-//W3C//DTD SVG 1.1//EN"
  "http://www.w3.org/Graphics/SVG/1.1/DTD/svg11.dtd">
<svg xmlns:xlink="http://www.w3.org/1999/xlink" width="125.28pt" height="110.88pt" viewBox="0 0 125.28 110.88" xmlns="http://www.w3.org/2000/svg" version="1.1">
 <metadata>
  <rdf:RDF xmlns:dc="http://purl.org/dc/elements/1.1/" xmlns:cc="http://creativecommons.org/ns#" xmlns:rdf="http://www.w3.org/1999/02/22-rdf-syntax-ns#">
   <cc:Work>
    <dc:type rdf:resource="http://purl.org/dc/dcmitype/StillImage"/>
    <dc:date>2025-03-07T10:30:30.959941</dc:date>
    <dc:format>image/svg+xml</dc:format>
    <dc:creator>
     <cc:Agent>
      <dc:title>Matplotlib v3.9.2, https://matplotlib.org/</dc:title>
     </cc:Agent>
    </dc:creator>
   </cc:Work>
  </rdf:RDF>
 </metadata>
 <defs>
  <style type="text/css">*{stroke-linejoin: round; stroke-linecap: butt}</style>
 </defs>
 <g id="figure_1">
  <g id="patch_1">
   <path d="M 0 110.88 
L 125.28 110.88 
L 125.28 0 
L 0 0 
z
" style="fill: #ffffff"/>
  </g>
  <g id="axes_1">
   <g id="patch_2">
    <path d="M 4.94 105.94 
L 123.84 105.94 
L 123.84 18.509588 
L 4.94 18.509588 
z
" style="fill: #ffffff"/>
   </g>
   <g id="line2d_1">
    <path d="M 4.94 60.187581 
L 123.84 60.187581 
" clip-path="url(#pfb3a0dc605)" style="fill: none; stroke-dasharray: 5.55,2.4; stroke-dashoffset: 0; stroke: #808080; stroke-width: 1.5"/>
   </g>
   <g id="line2d_2">
    <path d="M 4.94 101.96589 
L 123.84 101.96589 
" clip-path="url(#pfb3a0dc605)" style="fill: none; stroke: #d3d3d3; stroke-width: 1.5; stroke-linecap: square"/>
   </g>
   <g id="PolyCollection_1">
    <path d="M 10.344545 101.96589 
L 10.344545 101.830697 
L 11.611236 81.43749 
L 12.877926 77.567864 
L 13.722386 73.054045 
L 15.411307 44.015165 
L 16.255767 42.386751 
L 17.522457 30.723915 
L 18.366918 31.858629 
L 19.633608 36.883181 
L 20.478068 36.685503 
L 21.322528 37.728938 
L 23.011449 32.139195 
L 23.855909 31.59599 
L 25.122599 31.170402 
L 25.54483 32.364745 
L 26.81152 35.58772 
L 28.50044 24.391052 
L 29.344901 25.522992 
L 30.189361 25.116844 
L 31.033821 23.492455 
L 32.300511 23.673624 
L 33.144972 22.483698 
L 35.678352 30.634687 
L 36.522813 32.146247 
L 38.211733 33.45745 
L 39.056193 33.639 
L 40.745114 38.643321 
L 42.011804 40.739081 
L 43.700724 38.966093 
L 45.389645 37.552427 
L 48.767486 36.824578 
L 52.567557 35.104279 
L 54.678707 31.875004 
L 56.367628 30.319095 
L 58.478778 30.291969 
L 60.589929 29.254258 
L 62.278849 27.258617 
L 64.81223 32.351572 
L 65.65669 31.553745 
L 69.034531 33.83614 
L 70.723452 33.682681 
L 72.412372 36.658012 
L 74.101293 35.692212 
L 77.479134 35.548899 
L 79.168054 36.94276 
L 80.012514 44.755544 
L 83.390355 45.425019 
L 85.079276 45.142054 
L 86.768196 46.282537 
L 88.457116 48.46373 
L 89.301577 48.389868 
L 90.990497 52.174983 
L 91.834957 52.192642 
L 95.212798 50.788343 
L 96.057259 50.593103 
L 99.435099 61.052097 
L 100.27956 61.829799 
L 104.501861 60.806105 
L 105.768551 59.290293 
L 107.035241 58.514259 
L 107.879702 59.672551 
L 109.146392 60.253351 
L 109.990852 61.049824 
L 111.257543 61.026723 
L 112.524233 60.908344 
L 113.368693 59.421542 
L 114.213153 58.933844 
L 115.902074 58.665989 
L 116.746534 58.690268 
L 118.013224 60.116636 
L 118.435455 60.191696 
L 118.435455 101.96589 
L 118.435455 101.96589 
L 118.013224 101.96589 
L 116.746534 101.96589 
L 115.902074 101.96589 
L 114.213153 101.96589 
L 113.368693 101.96589 
L 112.524233 101.96589 
L 111.257543 101.96589 
L 109.990852 101.96589 
L 109.146392 101.96589 
L 107.879702 101.96589 
L 107.035241 101.96589 
L 105.768551 101.96589 
L 104.501861 101.96589 
L 100.27956 101.96589 
L 99.435099 101.96589 
L 96.057259 101.96589 
L 95.212798 101.96589 
L 91.834957 101.96589 
L 90.990497 101.96589 
L 89.301577 101.96589 
L 88.457116 101.96589 
L 86.768196 101.96589 
L 85.079276 101.96589 
L 83.390355 101.96589 
L 80.012514 101.96589 
L 79.168054 101.96589 
L 77.479134 101.96589 
L 74.101293 101.96589 
L 72.412372 101.96589 
L 70.723452 101.96589 
L 69.034531 101.96589 
L 65.65669 101.96589 
L 64.81223 101.96589 
L 62.278849 101.96589 
L 60.589929 101.96589 
L 58.478778 101.96589 
L 56.367628 101.96589 
L 54.678707 101.96589 
L 52.567557 101.96589 
L 48.767486 101.96589 
L 45.389645 101.96589 
L 43.700724 101.96589 
L 42.011804 101.96589 
L 40.745114 101.96589 
L 39.056193 101.96589 
L 38.211733 101.96589 
L 36.522813 101.96589 
L 35.678352 101.96589 
L 33.144972 101.96589 
L 32.300511 101.96589 
L 31.033821 101.96589 
L 30.189361 101.96589 
L 29.344901 101.96589 
L 28.50044 101.96589 
L 26.81152 101.96589 
L 25.54483 101.96589 
L 25.122599 101.96589 
L 23.855909 101.96589 
L 23.011449 101.96589 
L 21.322528 101.96589 
L 20.478068 101.96589 
L 19.633608 101.96589 
L 18.366918 101.96589 
L 17.522457 101.96589 
L 16.255767 101.96589 
L 15.411307 101.96589 
L 13.722386 101.96589 
L 12.877926 101.96589 
L 11.611236 101.96589 
L 10.344545 101.96589 
z
" clip-path="url(#pfb3a0dc605)" style="fill: url(#he8b4f00b26); fill-opacity: 0.15; stroke: #ff7f50; stroke-opacity: 0.15"/>
   </g>
   <g id="PolyCollection_2">
    <path d="M 10.344545 101.96589 
L 10.344545 101.830697 
L 11.503524 88.553276 
L 12.567716 71.038576 
L 13.771934 57.045308 
L 14.771499 59.550148 
L 15.924015 56.516956 
L 16.886958 57.346708 
L 18.067479 55.971899 
L 18.995954 52.945084 
L 20.325117 56.608763 
L 21.238513 58.326738 
L 22.253158 52.005222 
L 23.789128 51.576376 
L 24.566807 52.201785 
L 25.549138 53.218945 
L 26.733967 55.954734 
L 27.673214 56.382144 
L 29.403065 57.373168 
L 48.05228 55.722283 
L 48.603764 55.996979 
L 74.312408 57.39792 
L 89.140009 57.791449 
L 111.186453 58.050315 
L 112.033067 59.514105 
L 114.333791 60.197761 
L 115.865452 60.770536 
L 116.313533 60.493325 
L 117.448815 61.255948 
L 118.435455 60.187581 
L 118.435455 101.96589 
L 118.435455 101.96589 
L 117.448815 101.96589 
L 116.313533 101.96589 
L 115.865452 101.96589 
L 114.333791 101.96589 
L 112.033067 101.96589 
L 111.186453 101.96589 
L 89.140009 101.96589 
L 74.312408 101.96589 
L 48.603764 101.96589 
L 48.05228 101.96589 
L 29.403065 101.96589 
L 27.673214 101.96589 
L 26.733967 101.96589 
L 25.549138 101.96589 
L 24.566807 101.96589 
L 23.789128 101.96589 
L 22.253158 101.96589 
L 21.238513 101.96589 
L 20.325117 101.96589 
L 18.995954 101.96589 
L 18.067479 101.96589 
L 16.886958 101.96589 
L 15.924015 101.96589 
L 14.771499 101.96589 
L 13.771934 101.96589 
L 12.567716 101.96589 
L 11.503524 101.96589 
L 10.344545 101.96589 
z
" clip-path="url(#pfb3a0dc605)" style="fill: url(#hac07e2258f); fill-opacity: 0.15; stroke: #1e90ff; stroke-opacity: 0.15"/>
   </g>
   <g id="matplotlib.axis_1">
    <g id="xtick_1">
     <g id="line2d_3">
      <defs>
       <path id="mee32f56720" d="M 0 0 
L 0 3.5 
" style="stroke: #000000; stroke-width: 0.8"/>
      </defs>
      <g>
       <use xlink:href="#mee32f56720" x="10.344545" y="105.94" style="stroke: #000000; stroke-width: 0.8"/>
      </g>
     </g>
    </g>
    <g id="xtick_2">
     <g id="line2d_4">
      <g>
       <use xlink:href="#mee32f56720" x="64.39" y="105.94" style="stroke: #000000; stroke-width: 0.8"/>
      </g>
     </g>
    </g>
    <g id="xtick_3">
     <g id="line2d_5">
      <g>
       <use xlink:href="#mee32f56720" x="118.435455" y="105.94" style="stroke: #000000; stroke-width: 0.8"/>
      </g>
     </g>
    </g>
   </g>
   <g id="matplotlib.axis_2">
    <g id="ytick_1">
     <g id="line2d_6">
      <defs>
       <path id="m3d422c17e9" d="M 0 0 
L -3.5 0 
" style="stroke: #000000; stroke-width: 0.8"/>
      </defs>
      <g>
       <use xlink:href="#m3d422c17e9" x="4.94" y="101.96589" style="stroke: #000000; stroke-width: 0.8"/>
      </g>
     </g>
    </g>
    <g id="ytick_2">
     <g id="line2d_7">
      <g>
       <use xlink:href="#m3d422c17e9" x="4.94" y="78.453352" style="stroke: #000000; stroke-width: 0.8"/>
      </g>
     </g>
    </g>
    <g id="ytick_3">
     <g id="line2d_8">
      <g>
       <use xlink:href="#m3d422c17e9" x="4.94" y="54.940814" style="stroke: #000000; stroke-width: 0.8"/>
      </g>
     </g>
    </g>
    <g id="ytick_4">
     <g id="line2d_9">
      <g>
       <use xlink:href="#m3d422c17e9" x="4.94" y="31.428275" style="stroke: #000000; stroke-width: 0.8"/>
      </g>
     </g>
    </g>
   </g>
   <g id="line2d_10">
    <path d="M 10.344545 101.830697 
L 11.611236 81.43749 
L 12.877926 77.567864 
L 13.722386 73.054045 
L 15.411307 44.015165 
L 16.255767 42.386751 
L 17.522457 30.723915 
L 18.366918 31.858629 
L 19.633608 36.883181 
L 20.478068 36.685503 
L 21.322528 37.728938 
L 23.011449 32.139195 
L 23.855909 31.59599 
L 25.122599 31.170402 
L 25.54483 32.364745 
L 26.81152 35.58772 
L 28.50044 24.391052 
L 29.344901 25.522992 
L 30.189361 25.116844 
L 31.033821 23.492455 
L 32.300511 23.673624 
L 33.144972 22.483698 
L 35.678352 30.634687 
L 36.522813 32.146247 
L 38.211733 33.45745 
L 39.056193 33.639 
L 40.745114 38.643321 
L 42.011804 40.739081 
L 43.700724 38.966093 
L 45.389645 37.552427 
L 48.767486 36.824578 
L 52.567557 35.104279 
L 54.678707 31.875004 
L 56.367628 30.319095 
L 58.478778 30.291969 
L 60.589929 29.254258 
L 62.278849 27.258617 
L 64.81223 32.351572 
L 65.65669 31.553745 
L 69.034531 33.83614 
L 70.723452 33.682681 
L 72.412372 36.658012 
L 74.101293 35.692212 
L 77.479134 35.548899 
L 79.168054 36.94276 
L 80.012514 44.755544 
L 83.390355 45.425019 
L 85.079276 45.142054 
L 86.768196 46.282537 
L 88.457116 48.46373 
L 89.301577 48.389868 
L 90.990497 52.174983 
L 91.834957 52.192642 
L 95.212798 50.788343 
L 96.057259 50.593103 
L 99.435099 61.052097 
L 100.27956 61.829799 
L 104.501861 60.806105 
L 105.768551 59.290293 
L 107.035241 58.514259 
L 107.879702 59.672551 
L 109.146392 60.253351 
L 109.990852 61.049824 
L 111.257543 61.026723 
L 112.524233 60.908344 
L 113.368693 59.421542 
L 114.213153 58.933844 
L 115.902074 58.665989 
L 116.746534 58.690268 
L 118.013224 60.116636 
L 118.435455 60.191696 
" clip-path="url(#pfb3a0dc605)" style="fill: none; stroke: #ff7f50; stroke-width: 1.5; stroke-linecap: square"/>
   </g>
   <g id="line2d_11">
    <path d="M 10.344545 101.830697 
L 11.503524 88.553276 
L 12.567716 71.038576 
L 13.771934 57.045308 
L 14.771499 59.550148 
L 15.924015 56.516956 
L 16.886958 57.346708 
L 18.067479 55.971899 
L 18.995954 52.945084 
L 20.325117 56.608763 
L 21.238513 58.326738 
L 22.253158 52.005222 
L 23.789128 51.576376 
L 24.566807 52.201785 
L 25.549138 53.218945 
L 26.733967 55.954734 
L 27.673214 56.382144 
L 29.403065 57.373168 
L 48.05228 55.722283 
L 48.603764 55.996979 
L 74.312408 57.39792 
L 89.140009 57.791449 
L 111.186453 58.050315 
L 112.033067 59.514105 
L 114.333791 60.197761 
L 115.865452 60.770536 
L 116.313533 60.493325 
L 117.448815 61.255948 
L 118.435455 60.187581 
" clip-path="url(#pfb3a0dc605)" style="fill: none; stroke: #1e90ff; stroke-opacity: 0.8; stroke-width: 1.5; stroke-linecap: square"/>
   </g>
   <g id="patch_3">
    <path d="M 4.94 105.94 
L 4.94 18.509588 
" style="fill: none; stroke: #000000; stroke-width: 0.8; stroke-linejoin: miter; stroke-linecap: square"/>
   </g>
   <g id="patch_4">
    <path d="M 123.84 105.94 
L 123.84 18.509588 
" style="fill: none; stroke: #000000; stroke-width: 0.8; stroke-linejoin: miter; stroke-linecap: square"/>
   </g>
   <g id="patch_5">
    <path d="M 4.94 105.94 
L 123.84 105.94 
" style="fill: none; stroke: #000000; stroke-width: 0.8; stroke-linejoin: miter; stroke-linecap: square"/>
   </g>
   <g id="patch_6">
    <path d="M 4.94 18.509588 
L 123.84 18.509588 
" style="fill: none; stroke: #000000; stroke-width: 0.8; stroke-linejoin: miter; stroke-linecap: square"/>
   </g>
   <g id="text_1">
    <!-- $\mathit{AUC}^{+}$ -->
    <g transform="translate(41.922229 12.509588) scale(0.16 -0.16)">
     <defs>
      <path id="CMTI12-41" d="M 1178 718 
C 979 365 800 218 480 186 
C 410 180 358 173 358 64 
C 358 0 422 0 435 0 
C 589 0 762 0 922 0 
C 1094 0 1280 0 1446 0 
C 1491 0 1562 0 1562 126 
C 1562 186 1510 192 1472 192 
C 1318 192 1229 268 1229 388 
C 1229 477 1280 559 1338 661 
L 1805 1478 
L 3290 1478 
L 3360 463 
C 3366 362 3379 192 2982 192 
C 2893 192 2835 192 2835 66 
C 2835 0 2899 0 2925 0 
C 3136 0 3366 0 3584 0 
C 3795 0 4013 0 4218 0 
C 4256 0 4333 0 4333 119 
C 4333 192 4288 192 4205 192 
C 3891 192 3859 235 3846 394 
L 3565 4422 
C 3558 4557 3552 4576 3462 4576 
C 3373 4576 3354 4538 3309 4461 
L 1178 718 
z
M 1914 1664 
L 3130 3814 
L 3277 1664 
L 1914 1664 
z
" transform="scale(0.015625)"/>
      <path id="CMTI12-55" d="M 4614 3725 
C 4717 4128 4986 4166 5222 4166 
C 5248 4166 5318 4166 5318 4279 
C 5318 4352 5261 4352 5235 4352 
C 5062 4352 4864 4352 4685 4352 
C 4307 4352 4128 4352 4122 4352 
C 4077 4352 4006 4352 4006 4230 
C 4006 4172 4058 4166 4102 4166 
C 4339 4166 4467 4096 4467 3905 
C 4467 3848 4454 3771 4442 3733 
L 3872 1453 
C 3686 719 3046 57 2400 57 
C 2035 57 1715 312 1715 859 
C 1715 1005 1741 1208 1779 1349 
L 2419 3898 
C 2477 4115 2515 4166 2912 4166 
C 3021 4166 3078 4166 3078 4282 
C 3078 4352 3021 4352 2989 4352 
C 2765 4352 2528 4352 2298 4352 
C 2061 4352 1818 4352 1587 4352 
C 1536 4352 1466 4352 1466 4230 
C 1466 4166 1510 4166 1632 4166 
C 1792 4166 1971 4166 1971 4064 
C 1971 4026 1971 4007 1958 3969 
L 1331 1462 
C 1280 1259 1280 1138 1280 1042 
C 1280 291 1798 -128 2374 -128 
C 3149 -128 3853 669 4038 1416 
L 4614 3725 
z
" transform="scale(0.015625)"/>
      <path id="CMTI12-43" d="M 5088 4341 
C 5094 4360 5101 4410 5101 4423 
C 5101 4480 5056 4480 5043 4480 
C 5030 4480 5005 4480 4960 4423 
L 4544 3914 
C 4339 4289 4013 4480 3597 4480 
C 2304 4480 947 3056 947 1550 
C 947 469 1651 -128 2464 -128 
C 3162 -128 3667 368 3718 412 
C 4275 959 4378 1518 4378 1531 
C 4378 1588 4326 1588 4288 1588 
C 4237 1588 4211 1582 4192 1524 
C 3904 552 3155 57 2560 57 
C 1978 57 1453 464 1453 1327 
C 1453 1505 1523 2592 2144 3443 
C 2470 3882 3053 4295 3642 4295 
C 4467 4295 4544 3411 4544 3131 
C 4544 3036 4531 2890 4512 2795 
L 4512 2738 
C 4512 2681 4563 2681 4595 2681 
C 4659 2681 4672 2687 4698 2789 
L 5088 4341 
z
" transform="scale(0.015625)"/>
      <path id="CMR17-2b" d="M 2413 1472 
L 4109 1472 
C 4198 1472 4307 1472 4307 1580 
C 4307 1695 4205 1695 4109 1695 
L 2413 1695 
L 2413 3386 
C 2413 3475 2413 3584 2304 3584 
C 2189 3584 2189 3482 2189 3386 
L 2189 1695 
L 493 1695 
C 403 1695 294 1695 294 1587 
C 294 1472 397 1472 493 1472 
L 2189 1472 
L 2189 -218 
C 2189 -307 2189 -416 2298 -416 
C 2413 -416 2413 -314 2413 -218 
L 2413 1472 
z
" transform="scale(0.015625)"/>
     </defs>
     <use xlink:href="#CMTI12-41" transform="scale(0.996264)"/>
     <use xlink:href="#CMTI12-55" transform="translate(69.92373 0) scale(0.996264)"/>
     <use xlink:href="#CMTI12-43" transform="translate(142.33818 0) scale(0.996264)"/>
     <use xlink:href="#CMR17-2b" transform="translate(226.606205 41.151544) scale(0.697382)"/>
    </g>
   </g>
   <g id="legend_1">
    <g id="patch_7">
     <path d="M 38.058081 100.94 
L 116.84 100.94 
Q 118.84 100.94 118.84 98.94 
L 118.84 80.065643 
Q 118.84 78.065643 116.84 78.065643 
L 38.058081 78.065643 
Q 36.058081 78.065643 36.058081 80.065643 
L 36.058081 98.94 
Q 36.058081 100.94 38.058081 100.94 
z
" style="fill: #ffffff; opacity: 0.8; stroke: #cccccc; stroke-linejoin: miter"/>
    </g>
    <g id="line2d_12">
     <path d="M 38.058081 83.565643 
L 48.058081 83.565643 
L 58.058081 83.565643 
" style="fill: none; stroke: #ff7f50; stroke-width: 1.5; stroke-linecap: square"/>
    </g>
    <g id="text_2">
     <!-- \textbf{AA} 0.6286 -->
     <g transform="translate(66.058081 87.065643) scale(0.1 -0.1)">
      <defs>
       <path id="CMSSBX10-41" d="M 3034 4202 
C 2938 4480 2752 4480 2624 4480 
L 2061 4480 
C 1933 4480 1747 4480 1651 4202 
L 301 303 
C 269 220 269 207 269 175 
C 269 0 429 0 518 0 
L 749 0 
C 864 0 1062 0 1152 254 
L 1402 960 
L 3174 960 
L 3392 350 
C 3469 127 3514 0 3821 0 
L 4166 0 
C 4256 0 4416 0 4416 172 
C 4416 204 4416 217 4384 301 
L 3034 4202 
z
M 2054 2891 
C 2150 3176 2234 3422 2285 3656 
L 2291 3656 
C 2323 3501 2323 3488 2374 3338 
L 2982 1516 
L 1594 1516 
L 2054 2891 
z
" transform="scale(0.015625)"/>
       <path id="CMSS17-30" d="M 2758 2044 
C 2758 2405 2752 3077 2490 3596 
C 2227 4096 1805 4229 1504 4229 
C 1069 4229 698 3975 506 3570 
C 301 3146 243 2709 243 2044 
C 243 1589 262 1031 493 543 
C 755 5 1197 -128 1498 -128 
C 1894 -128 2278 81 2496 518 
C 2720 974 2758 1474 2758 2044 
z
M 1498 261 
C 1011 261 864 811 819 995 
C 742 1310 730 1614 730 2114 
C 730 2506 730 2948 851 3297 
C 998 3701 1254 3840 1498 3840 
C 1971 3840 2125 3372 2176 3208 
C 2272 2873 2272 2481 2272 2114 
C 2272 1526 2272 261 1498 261 
z
" transform="scale(0.015625)"/>
       <path id="CMSS17-2e" d="M 1088 510 
L 576 510 
L 576 0 
L 1088 0 
L 1088 510 
z
" transform="scale(0.015625)"/>
       <path id="CMSS17-36" d="M 2496 4101 
C 2227 4210 2035 4229 1856 4229 
C 1024 4229 250 3368 250 2006 
C 250 265 986 -128 1510 -128 
C 1798 -128 2086 -39 2362 280 
C 2643 617 2752 898 2752 1389 
C 2752 2179 2362 2880 1779 2880 
C 1357 2880 992 2657 768 2376 
C 832 3258 1254 3840 1862 3840 
C 2029 3840 2246 3816 2496 3710 
L 2496 4101 
z
M 774 1369 
C 774 1420 774 1452 781 1548 
C 781 2045 1069 2491 1536 2491 
C 1837 2491 1990 2332 2106 2135 
C 2240 1886 2246 1650 2246 1388 
C 2246 1140 2246 891 2099 637 
C 1978 439 1818 267 1510 267 
C 902 267 800 1114 774 1369 
z
" transform="scale(0.015625)"/>
       <path id="CMSS17-32" d="M 1651 1357 
C 1830 1541 2099 1764 2285 1987 
C 2464 2204 2701 2511 2701 2957 
C 2701 3657 2227 4288 1421 4288 
C 787 4288 422 3893 250 3274 
L 499 2929 
C 640 3510 838 3880 1338 3880 
C 1888 3880 2195 3433 2195 2942 
C 2195 2355 1747 1901 1408 1563 
C 1030 1187 659 804 301 408 
L 301 0 
L 2701 0 
L 2701 433 
L 1613 433 
C 1536 433 1459 433 1382 433 
L 742 433 
L 742 439 
L 1651 1357 
z
" transform="scale(0.015625)"/>
       <path id="CMSS17-38" d="M 1933 2222 
C 2419 2380 2669 2760 2669 3134 
C 2669 3722 2157 4229 1504 4229 
C 826 4229 333 3708 333 3144 
C 333 2780 576 2403 1069 2241 
C 442 1997 250 1512 250 1149 
C 250 446 819 -128 1498 -128 
C 2202 -128 2752 455 2752 1138 
C 2752 1557 2502 2000 1933 2222 
z
M 1504 2432 
C 1075 2432 787 2712 787 3136 
C 787 3566 1075 3840 1504 3840 
C 1901 3840 2214 3591 2214 3136 
C 2214 2687 1907 2432 1504 2432 
z
M 1504 267 
C 1139 267 749 517 749 1156 
C 749 1813 1184 2043 1498 2043 
C 1843 2043 2253 1800 2253 1156 
C 2253 491 1830 267 1504 267 
z
" transform="scale(0.015625)"/>
      </defs>
      <use xlink:href="#CMSSBX10-41" transform="scale(0.996264)"/>
      <use xlink:href="#CMSSBX10-41" transform="translate(73.059766 0) scale(0.996264)"/>
      <use xlink:href="#CMSS17-30" transform="translate(177.348645 0) scale(0.996264)"/>
      <use xlink:href="#CMSS17-2e" transform="translate(224.192268 0) scale(0.996264)"/>
      <use xlink:href="#CMSS17-36" transform="translate(250.216473 0) scale(0.996264)"/>
      <use xlink:href="#CMSS17-32" transform="translate(297.060097 0) scale(0.996264)"/>
      <use xlink:href="#CMSS17-38" transform="translate(343.90372 0) scale(0.996264)"/>
      <use xlink:href="#CMSS17-36" transform="translate(390.747344 0) scale(0.996264)"/>
     </g>
    </g>
    <g id="line2d_13">
     <path d="M 38.058081 93.502822 
L 48.058081 93.502822 
L 58.058081 93.502822 
" style="fill: none; stroke: #1e90ff; stroke-opacity: 0.8; stroke-width: 1.5; stroke-linecap: square"/>
    </g>
    <g id="text_3">
     <!-- {BPT} 0.4695 -->
     <g transform="translate(66.058081 97.002822) scale(0.1 -0.1)">
      <defs>
       <path id="CMSS17-42" d="M 570 4416 
L 570 0 
L 2163 0 
C 3034 0 3667 574 3667 1200 
C 3667 1685 3251 2176 2502 2317 
C 3334 2558 3501 3040 3501 3313 
C 3501 3883 2874 4416 1997 4416 
L 570 4416 
z
M 1088 2496 
L 1088 4059 
L 1824 4059 
C 2483 4059 3002 3724 3002 3306 
C 3002 2926 2592 2496 1766 2496 
L 1088 2496 
z
M 1088 357 
L 1088 2107 
L 1939 2107 
C 2630 2107 3162 1679 3162 1206 
C 3162 772 2694 357 1984 357 
L 1088 357 
z
" transform="scale(0.015625)"/>
       <path id="CMSS17-50" d="M 2106 1856 
C 2874 1856 3501 2453 3501 3158 
C 3501 3850 2899 4453 2067 4453 
L 570 4453 
L 570 0 
L 1107 0 
L 1107 1856 
L 2106 1856 
z
M 1926 4096 
C 2669 4096 2995 3627 2995 3157 
C 2995 2720 2694 2226 1926 2226 
L 1094 2226 
L 1094 4096 
L 1926 4096 
z
" transform="scale(0.015625)"/>
       <path id="CMSS17-54" d="M 2317 3968 
L 2848 3968 
C 2925 3968 3002 3968 3078 3968 
L 3878 3968 
L 3878 4376 
L 218 4376 
L 218 3968 
L 1018 3968 
C 1094 3968 1171 3968 1248 3968 
L 1779 3968 
L 1779 -32 
L 2317 -32 
L 2317 3968 
z
" transform="scale(0.015625)"/>
       <path id="CMSS17-34" d="M 2253 1088 
L 2835 1088 
L 2835 1477 
L 2253 1477 
L 2253 4192 
L 1690 4192 
L 166 1477 
L 166 1088 
L 1747 1088 
L 1747 0 
L 2253 0 
L 2253 1088 
z
M 659 1477 
C 1030 2127 1766 3439 1766 3885 
L 1766 1477 
L 659 1477 
z
" transform="scale(0.015625)"/>
       <path id="CMSS17-39" d="M 435 174 
C 614 21 845 -128 1235 -128 
C 2010 -128 2752 721 2752 2095 
C 2752 3932 1952 4229 1523 4229 
C 1094 4229 819 4041 582 3741 
C 301 3397 250 3090 250 2733 
C 250 2307 326 2045 506 1745 
C 749 1357 973 1275 1222 1275 
C 1600 1275 1978 1459 2234 1776 
C 2189 902 1798 267 1235 267 
C 1005 267 819 339 634 516 
L 435 174 
z
M 2214 2746 
C 2221 2703 2221 2622 2221 2596 
C 2221 2074 1914 1664 1466 1664 
C 1171 1664 1018 1813 902 2006 
C 762 2249 755 2485 755 2733 
C 755 2976 755 3244 934 3511 
C 1069 3703 1235 3840 1523 3840 
C 2112 3840 2208 3000 2214 2746 
z
" transform="scale(0.015625)"/>
       <path id="CMSS17-35" d="M 934 3752 
L 2502 3752 
L 2502 4160 
L 467 4160 
L 467 1781 
L 896 1781 
C 1011 2046 1248 2240 1555 2240 
C 1843 2240 2163 1989 2163 1266 
C 2163 493 1709 267 1376 267 
C 966 267 589 512 422 851 
L 218 499 
C 512 49 992 -128 1376 -128 
C 2118 -128 2701 497 2701 1253 
C 2701 2030 2182 2629 1562 2629 
C 1338 2629 1120 2553 934 2399 
L 934 3752 
z
" transform="scale(0.015625)"/>
      </defs>
      <use xlink:href="#CMSS17-42" transform="scale(0.996264)"/>
      <use xlink:href="#CMSS17-50" transform="translate(62.33804 0) scale(0.996264)"/>
      <use xlink:href="#CMSS17-54" transform="translate(122.073626 0) scale(0.996264)"/>
      <use xlink:href="#CMSS17-30" transform="translate(217.122193 0) scale(0.996264)"/>
      <use xlink:href="#CMSS17-2e" transform="translate(263.965817 0) scale(0.996264)"/>
      <use xlink:href="#CMSS17-34" transform="translate(289.990022 0) scale(0.996264)"/>
      <use xlink:href="#CMSS17-36" transform="translate(336.833645 0) scale(0.996264)"/>
      <use xlink:href="#CMSS17-39" transform="translate(383.677269 0) scale(0.996264)"/>
      <use xlink:href="#CMSS17-35" transform="translate(430.520892 0) scale(0.996264)"/>
     </g>
    </g>
   </g>
  </g>
 </g>
 <defs>
  <clipPath id="pfb3a0dc605">
   <rect x="4.94" y="18.509588" width="118.9" height="87.430412"/>
  </clipPath>
 </defs>
 <defs>
  <pattern id="he8b4f00b26" patternUnits="userSpaceOnUse" x="0" y="0" width="72" height="72">
   <rect x="0" y="0" width="73" height="73" fill="#ff7f50"/>
   <path d="M -36 36 
L 36 -36 
M -32 40 
L 40 -32 
M -28 44 
L 44 -28 
M -24 48 
L 48 -24 
M -20 52 
L 52 -20 
M -16 56 
L 56 -16 
M -12 60 
L 60 -12 
M -8 64 
L 64 -8 
M -4 68 
L 68 -4 
M 0 72 
L 72 0 
M 4 76 
L 76 4 
M 8 80 
L 80 8 
M 12 84 
L 84 12 
M 16 88 
L 88 16 
M 20 92 
L 92 20 
M 24 96 
L 96 24 
M 28 100 
L 100 28 
M 32 104 
L 104 32 
M 36 108 
L 108 36 
" style="fill: #ff7f50; stroke: #ff7f50; stroke-width: 1.0; stroke-linecap: butt; stroke-linejoin: miter; stroke-opacity: 0.15"/>
  </pattern>
  <pattern id="hac07e2258f" patternUnits="userSpaceOnUse" x="0" y="0" width="72" height="72">
   <rect x="0" y="0" width="73" height="73" fill="#1e90ff"/>
   <path d="M -36 36 
L 36 108 
M -32 32 
L 40 104 
M -28 28 
L 44 100 
M -24 24 
L 48 96 
M -20 20 
L 52 92 
M -16 16 
L 56 88 
M -12 12 
L 60 84 
M -8 8 
L 64 80 
M -4 4 
L 68 76 
M 0 0 
L 72 72 
M 4 -4 
L 76 68 
M 8 -8 
L 80 64 
M 12 -12 
L 84 60 
M 16 -16 
L 88 56 
M 20 -20 
L 92 52 
M 24 -24 
L 96 48 
M 28 -28 
L 100 44 
M 32 -32 
L 104 40 
M 36 -36 
L 108 36 
" style="fill: #1e90ff; stroke: #1e90ff; stroke-width: 1.0; stroke-linecap: butt; stroke-linejoin: miter; stroke-opacity: 0.15"/>
  </pattern>
 </defs>
</svg>
