<?xml version="1.0" encoding="utf-8" standalone="no"?>
<!DOCTYPE svg PUBLIC "-//W3C//DTD SVG 1.1//EN"
  "http://www.w3.org/Graphics/SVG/1.1/DTD/svg11.dtd">
<svg xmlns:xlink="http://www.w3.org/1999/xlink" width="125.28pt" height="110.88pt" viewBox="0 0 125.28 110.88" xmlns="http://www.w3.org/2000/svg" version="1.1">
 <metadata>
  <rdf:RDF xmlns:dc="http://purl.org/dc/elements/1.1/" xmlns:cc="http://creativecommons.org/ns#" xmlns:rdf="http://www.w3.org/1999/02/22-rdf-syntax-ns#">
   <cc:Work>
    <dc:type rdf:resource="http://purl.org/dc/dcmitype/StillImage"/>
    <dc:date>2025-11-14T19:12:33.660683</dc:date>
    <dc:format>image/svg+xml</dc:format>
    <dc:creator>
     <cc:Agent>
      <dc:title>Matplotlib v3.9.2, https://matplotlib.org/</dc:title>
     </cc:Agent>
    </dc:creator>
   </cc:Work>
  </rdf:RDF>
 </metadata>
 <defs>
  <style type="text/css">*{stroke-linejoin: round; stroke-linecap: butt}</style>
 </defs>
 <g id="figure_1">
  <g id="patch_1">
   <path d="M 0 110.88 
L 125.28 110.88 
L 125.28 0 
L 0 0 
z
" style="fill: #ffffff"/>
  </g>
  <g id="axes_1">
   <g id="patch_2">
    <path d="M 4.94 105.94 
L 123.84 105.94 
L 123.84 18.509588 
L 4.94 18.509588 
z
" style="fill: #ffffff"/>
   </g>
   <g id="line2d_1">
    <path d="M 4.94 22.483698 
L 123.84 22.483698 
" clip-path="url(#p503c13eece)" style="fill: none; stroke-dasharray: 5.55,2.4; stroke-dashoffset: 0; stroke: #808080; stroke-width: 1.5"/>
   </g>
   <g id="line2d_2">
    <path d="M 4.94 101.96589 
L 123.84 101.96589 
" clip-path="url(#p503c13eece)" style="fill: none; stroke: #d3d3d3; stroke-width: 1.5; stroke-linecap: square"/>
   </g>
   <g id="PolyCollection_1">
    <path d="M 10.344545 101.96589 
L 10.344545 101.96589 
L 11.611236 50.269428 
L 12.877926 33.65025 
L 14.144616 22.483698 
L 14.989077 22.483698 
L 16.255767 22.483698 
L 17.100227 22.483698 
L 17.944688 22.483698 
L 19.633608 22.483698 
L 20.478068 22.483698 
L 21.322528 22.483698 
L 22.589219 22.483698 
L 23.433679 22.483698 
L 24.700369 22.483698 
L 25.54483 22.483698 
L 26.81152 22.483698 
L 27.65598 22.483698 
L 28.92267 22.483698 
L 30.189361 22.483698 
L 31.878281 22.483698 
L 32.300511 22.483698 
L 33.989432 22.483698 
L 35.678352 22.483698 
L 36.522813 22.577922 
L 37.367273 26.037975 
L 39.056193 22.483698 
L 40.745114 22.513748 
L 42.434034 23.084532 
L 45.811875 23.650124 
L 47.500795 23.139298 
L 49.189716 22.538814 
L 50.878636 23.60058 
L 52.567557 25.38518 
L 54.256477 24.747706 
L 55.100938 24.313707 
L 55.945398 24.968696 
L 58.478778 24.036392 
L 59.323239 23.79676 
L 61.012159 23.024328 
L 62.70108 23.191652 
L 64.39 23.980291 
L 66.07892 24.604524 
L 67.767841 24.52807 
L 71.990142 24.882625 
L 75.367983 25.744501 
L 78.745824 26.344407 
L 79.590284 26.612052 
L 82.968125 25.674386 
L 84.657045 25.601494 
L 88.034886 24.349636 
L 89.723807 25.730359 
L 91.412727 26.123241 
L 94.790568 25.248304 
L 96.479489 25.390358 
L 99.85733 25.501206 
L 103.23517 24.607328 
L 106.613011 24.157587 
L 109.990852 23.835749 
L 111.679773 23.829193 
L 113.368693 23.200218 
L 116.746534 23.147371 
L 118.435455 22.484745 
L 118.435455 101.96589 
L 118.435455 101.96589 
L 116.746534 101.96589 
L 113.368693 101.96589 
L 111.679773 101.96589 
L 109.990852 101.96589 
L 106.613011 101.96589 
L 103.23517 101.96589 
L 99.85733 101.96589 
L 96.479489 101.96589 
L 94.790568 101.96589 
L 91.412727 101.96589 
L 89.723807 101.96589 
L 88.034886 101.96589 
L 84.657045 101.96589 
L 82.968125 101.96589 
L 79.590284 101.96589 
L 78.745824 101.96589 
L 75.367983 101.96589 
L 71.990142 101.96589 
L 67.767841 101.96589 
L 66.07892 101.96589 
L 64.39 101.96589 
L 62.70108 101.96589 
L 61.012159 101.96589 
L 59.323239 101.96589 
L 58.478778 101.96589 
L 55.945398 101.96589 
L 55.100938 101.96589 
L 54.256477 101.96589 
L 52.567557 101.96589 
L 50.878636 101.96589 
L 49.189716 101.96589 
L 47.500795 101.96589 
L 45.811875 101.96589 
L 42.434034 101.96589 
L 40.745114 101.96589 
L 39.056193 101.96589 
L 37.367273 101.96589 
L 36.522813 101.96589 
L 35.678352 101.96589 
L 33.989432 101.96589 
L 32.300511 101.96589 
L 31.878281 101.96589 
L 30.189361 101.96589 
L 28.92267 101.96589 
L 27.65598 101.96589 
L 26.81152 101.96589 
L 25.54483 101.96589 
L 24.700369 101.96589 
L 23.433679 101.96589 
L 22.589219 101.96589 
L 21.322528 101.96589 
L 20.478068 101.96589 
L 19.633608 101.96589 
L 17.944688 101.96589 
L 17.100227 101.96589 
L 16.255767 101.96589 
L 14.989077 101.96589 
L 14.144616 101.96589 
L 12.877926 101.96589 
L 11.611236 101.96589 
L 10.344545 101.96589 
z
" clip-path="url(#p503c13eece)" style="fill: url(#ha87c4fbe53); fill-opacity: 0.15; stroke: #ff7f50; stroke-opacity: 0.15"/>
   </g>
   <g id="PolyCollection_2">
    <path d="M 10.344545 101.96589 
L 10.344545 101.96589 
L 11.497061 37.5696 
L 12.548328 22.483698 
L 13.886108 28.537053 
L 14.743494 28.092822 
L 15.954174 22.483698 
L 17.365198 22.483698 
L 18.68359 22.483698 
L 19.885653 22.483698 
L 20.62671 22.483698 
L 21.31822 22.483698 
L 22.550443 22.483698 
L 23.418599 22.483698 
L 25.174301 22.483698 
L 25.811955 22.483698 
L 26.873993 22.483698 
L 29.161791 22.483698 
L 31.115682 22.483698 
L 33.168668 22.483698 
L 35.518939 22.483698 
L 38.758909 22.483698 
L 41.512021 22.483698 
L 42.003187 22.483698 
L 43.017832 22.483698 
L 44.691673 22.802551 
L 45.669695 22.483698 
L 49.536548 22.483698 
L 52.222879 22.483698 
L 59.053959 22.527255 
L 61.996645 22.483698 
L 63.664023 23.089175 
L 65.768711 23.002924 
L 68.687699 23.08774 
L 71.593763 23.202098 
L 74.848812 23.57973 
L 75.367983 23.853444 
L 77.498522 23.486055 
L 79.635523 23.345247 
L 82.410178 22.710549 
L 98.187797 23.05688 
L 100.794422 23.746414 
L 110.703904 23.456327 
L 116.78531 23.530659 
L 117.698706 22.483698 
L 118.435455 22.483698 
L 118.435455 101.96589 
L 118.435455 101.96589 
L 117.698706 101.96589 
L 116.78531 101.96589 
L 110.703904 101.96589 
L 100.794422 101.96589 
L 98.187797 101.96589 
L 82.410178 101.96589 
L 79.635523 101.96589 
L 77.498522 101.96589 
L 75.367983 101.96589 
L 74.848812 101.96589 
L 71.593763 101.96589 
L 68.687699 101.96589 
L 65.768711 101.96589 
L 63.664023 101.96589 
L 61.996645 101.96589 
L 59.053959 101.96589 
L 52.222879 101.96589 
L 49.536548 101.96589 
L 45.669695 101.96589 
L 44.691673 101.96589 
L 43.017832 101.96589 
L 42.003187 101.96589 
L 41.512021 101.96589 
L 38.758909 101.96589 
L 35.518939 101.96589 
L 33.168668 101.96589 
L 31.115682 101.96589 
L 29.161791 101.96589 
L 26.873993 101.96589 
L 25.811955 101.96589 
L 25.174301 101.96589 
L 23.418599 101.96589 
L 22.550443 101.96589 
L 21.31822 101.96589 
L 20.62671 101.96589 
L 19.885653 101.96589 
L 18.68359 101.96589 
L 17.365198 101.96589 
L 15.954174 101.96589 
L 14.743494 101.96589 
L 13.886108 101.96589 
L 12.548328 101.96589 
L 11.497061 101.96589 
L 10.344545 101.96589 
z
" clip-path="url(#p503c13eece)" style="fill: url(#hcf309311bb); fill-opacity: 0.15; stroke: #1e90ff; stroke-opacity: 0.15"/>
   </g>
   <g id="matplotlib.axis_1">
    <g id="xtick_1">
     <g id="line2d_3">
      <defs>
       <path id="mf9598110fa" d="M 0 0 
L 0 3.5 
" style="stroke: #000000; stroke-width: 0.8"/>
      </defs>
      <g>
       <use xlink:href="#mf9598110fa" x="10.344545" y="105.94" style="stroke: #000000; stroke-width: 0.8"/>
      </g>
     </g>
    </g>
    <g id="xtick_2">
     <g id="line2d_4">
      <g>
       <use xlink:href="#mf9598110fa" x="64.39" y="105.94" style="stroke: #000000; stroke-width: 0.8"/>
      </g>
     </g>
    </g>
    <g id="xtick_3">
     <g id="line2d_5">
      <g>
       <use xlink:href="#mf9598110fa" x="118.435455" y="105.94" style="stroke: #000000; stroke-width: 0.8"/>
      </g>
     </g>
    </g>
   </g>
   <g id="matplotlib.axis_2">
    <g id="ytick_1">
     <g id="line2d_6">
      <defs>
       <path id="m52b9f48d14" d="M 0 0 
L -3.5 0 
" style="stroke: #000000; stroke-width: 0.8"/>
      </defs>
      <g>
       <use xlink:href="#m52b9f48d14" x="4.94" y="101.96589" style="stroke: #000000; stroke-width: 0.8"/>
      </g>
     </g>
    </g>
    <g id="ytick_2">
     <g id="line2d_7">
      <g>
       <use xlink:href="#m52b9f48d14" x="4.94" y="82.095342" style="stroke: #000000; stroke-width: 0.8"/>
      </g>
     </g>
    </g>
    <g id="ytick_3">
     <g id="line2d_8">
      <g>
       <use xlink:href="#m52b9f48d14" x="4.94" y="62.224794" style="stroke: #000000; stroke-width: 0.8"/>
      </g>
     </g>
    </g>
    <g id="ytick_4">
     <g id="line2d_9">
      <g>
       <use xlink:href="#m52b9f48d14" x="4.94" y="42.354246" style="stroke: #000000; stroke-width: 0.8"/>
      </g>
     </g>
    </g>
    <g id="ytick_5">
     <g id="line2d_10">
      <g>
       <use xlink:href="#m52b9f48d14" x="4.94" y="22.483698" style="stroke: #000000; stroke-width: 0.8"/>
      </g>
     </g>
    </g>
   </g>
   <g id="line2d_11">
    <path d="M 10.344545 101.96589 
L 11.611236 50.269428 
L 12.877926 33.65025 
L 14.144616 22.483698 
L 14.989077 22.483698 
L 16.255767 22.483698 
L 17.100227 22.483698 
L 17.944688 22.483698 
L 19.633608 22.483698 
L 20.478068 22.483698 
L 21.322528 22.483698 
L 22.589219 22.483698 
L 23.433679 22.483698 
L 24.700369 22.483698 
L 25.54483 22.483698 
L 26.81152 22.483698 
L 27.65598 22.483698 
L 28.92267 22.483698 
L 30.189361 22.483698 
L 31.878281 22.483698 
L 32.300511 22.483698 
L 33.989432 22.483698 
L 35.678352 22.483698 
L 36.522813 22.577922 
L 37.367273 26.037975 
L 39.056193 22.483698 
L 40.745114 22.513748 
L 42.434034 23.084532 
L 45.811875 23.650124 
L 47.500795 23.139298 
L 49.189716 22.538814 
L 50.878636 23.60058 
L 52.567557 25.38518 
L 54.256477 24.747706 
L 55.100938 24.313707 
L 55.945398 24.968696 
L 58.478778 24.036392 
L 59.323239 23.79676 
L 61.012159 23.024328 
L 62.70108 23.191652 
L 64.39 23.980291 
L 66.07892 24.604524 
L 67.767841 24.52807 
L 71.990142 24.882625 
L 75.367983 25.744501 
L 78.745824 26.344407 
L 79.590284 26.612052 
L 82.968125 25.674386 
L 84.657045 25.601494 
L 88.034886 24.349636 
L 89.723807 25.730359 
L 91.412727 26.123241 
L 94.790568 25.248304 
L 96.479489 25.390358 
L 99.85733 25.501206 
L 103.23517 24.607328 
L 106.613011 24.157587 
L 109.990852 23.835749 
L 111.679773 23.829193 
L 113.368693 23.200218 
L 116.746534 23.147371 
L 118.435455 22.484745 
" clip-path="url(#p503c13eece)" style="fill: none; stroke: #ff7f50; stroke-width: 1.5; stroke-linecap: square"/>
   </g>
   <g id="line2d_12">
    <path d="M 10.344545 101.96589 
L 11.497061 37.5696 
L 12.548328 22.483698 
L 13.886108 28.537053 
L 14.743494 28.092822 
L 15.954174 22.483698 
L 17.365198 22.483698 
L 18.68359 22.483698 
L 19.885653 22.483698 
L 20.62671 22.483698 
L 21.31822 22.483698 
L 22.550443 22.483698 
L 23.418599 22.483698 
L 25.174301 22.483698 
L 25.811955 22.483698 
L 26.873993 22.483698 
L 29.161791 22.483698 
L 31.115682 22.483698 
L 33.168668 22.483698 
L 35.518939 22.483698 
L 38.758909 22.483698 
L 41.512021 22.483698 
L 42.003187 22.483698 
L 43.017832 22.483698 
L 44.691673 22.802551 
L 45.669695 22.483698 
L 49.536548 22.483698 
L 52.222879 22.483698 
L 59.053959 22.527255 
L 61.996645 22.483698 
L 63.664023 23.089175 
L 65.768711 23.002924 
L 68.687699 23.08774 
L 71.593763 23.202098 
L 74.848812 23.57973 
L 75.367983 23.853444 
L 77.498522 23.486055 
L 79.635523 23.345247 
L 82.410178 22.710549 
L 98.187797 23.05688 
L 100.794422 23.746414 
L 110.703904 23.456327 
L 116.78531 23.530659 
L 117.698706 22.483698 
L 118.435455 22.483698 
" clip-path="url(#p503c13eece)" style="fill: none; stroke: #1e90ff; stroke-opacity: 0.8; stroke-width: 1.5; stroke-linecap: square"/>
   </g>
   <g id="patch_3">
    <path d="M 4.94 105.94 
L 4.94 18.509588 
" style="fill: none; stroke: #000000; stroke-width: 0.8; stroke-linejoin: miter; stroke-linecap: square"/>
   </g>
   <g id="patch_4">
    <path d="M 123.84 105.94 
L 123.84 18.509588 
" style="fill: none; stroke: #000000; stroke-width: 0.8; stroke-linejoin: miter; stroke-linecap: square"/>
   </g>
   <g id="patch_5">
    <path d="M 4.94 105.94 
L 123.84 105.94 
" style="fill: none; stroke: #000000; stroke-width: 0.8; stroke-linejoin: miter; stroke-linecap: square"/>
   </g>
   <g id="patch_6">
    <path d="M 4.94 18.509588 
L 123.84 18.509588 
" style="fill: none; stroke: #000000; stroke-width: 0.8; stroke-linejoin: miter; stroke-linecap: square"/>
   </g>
   <g id="text_1">
    <!-- $\mathit{AUC}^{+}$ -->
    <g transform="translate(41.922229 12.509588) scale(0.16 -0.16)">
     <defs>
      <path id="CMTI12-41" d="M 1178 718 
C 979 365 800 218 480 186 
C 410 180 358 173 358 64 
C 358 0 422 0 435 0 
C 589 0 762 0 922 0 
C 1094 0 1280 0 1446 0 
C 1491 0 1562 0 1562 126 
C 1562 186 1510 192 1472 192 
C 1318 192 1229 268 1229 388 
C 1229 477 1280 559 1338 661 
L 1805 1478 
L 3290 1478 
L 3360 463 
C 3366 362 3379 192 2982 192 
C 2893 192 2835 192 2835 66 
C 2835 0 2899 0 2925 0 
C 3136 0 3366 0 3584 0 
C 3795 0 4013 0 4218 0 
C 4256 0 4333 0 4333 119 
C 4333 192 4288 192 4205 192 
C 3891 192 3859 235 3846 394 
L 3565 4422 
C 3558 4557 3552 4576 3462 4576 
C 3373 4576 3354 4538 3309 4461 
L 1178 718 
z
M 1914 1664 
L 3130 3814 
L 3277 1664 
L 1914 1664 
z
" transform="scale(0.015625)"/>
      <path id="CMTI12-55" d="M 4614 3725 
C 4717 4128 4986 4166 5222 4166 
C 5248 4166 5318 4166 5318 4279 
C 5318 4352 5261 4352 5235 4352 
C 5062 4352 4864 4352 4685 4352 
C 4307 4352 4128 4352 4122 4352 
C 4077 4352 4006 4352 4006 4230 
C 4006 4172 4058 4166 4102 4166 
C 4339 4166 4467 4096 4467 3905 
C 4467 3848 4454 3771 4442 3733 
L 3872 1453 
C 3686 719 3046 57 2400 57 
C 2035 57 1715 312 1715 859 
C 1715 1005 1741 1208 1779 1349 
L 2419 3898 
C 2477 4115 2515 4166 2912 4166 
C 3021 4166 3078 4166 3078 4282 
C 3078 4352 3021 4352 2989 4352 
C 2765 4352 2528 4352 2298 4352 
C 2061 4352 1818 4352 1587 4352 
C 1536 4352 1466 4352 1466 4230 
C 1466 4166 1510 4166 1632 4166 
C 1792 4166 1971 4166 1971 4064 
C 1971 4026 1971 4007 1958 3969 
L 1331 1462 
C 1280 1259 1280 1138 1280 1042 
C 1280 291 1798 -128 2374 -128 
C 3149 -128 3853 669 4038 1416 
L 4614 3725 
z
" transform="scale(0.015625)"/>
      <path id="CMTI12-43" d="M 5088 4341 
C 5094 4360 5101 4410 5101 4423 
C 5101 4480 5056 4480 5043 4480 
C 5030 4480 5005 4480 4960 4423 
L 4544 3914 
C 4339 4289 4013 4480 3597 4480 
C 2304 4480 947 3056 947 1550 
C 947 469 1651 -128 2464 -128 
C 3162 -128 3667 368 3718 412 
C 4275 959 4378 1518 4378 1531 
C 4378 1588 4326 1588 4288 1588 
C 4237 1588 4211 1582 4192 1524 
C 3904 552 3155 57 2560 57 
C 1978 57 1453 464 1453 1327 
C 1453 1505 1523 2592 2144 3443 
C 2470 3882 3053 4295 3642 4295 
C 4467 4295 4544 3411 4544 3131 
C 4544 3036 4531 2890 4512 2795 
L 4512 2738 
C 4512 2681 4563 2681 4595 2681 
C 4659 2681 4672 2687 4698 2789 
L 5088 4341 
z
" transform="scale(0.015625)"/>
      <path id="CMR17-2b" d="M 2413 1472 
L 4109 1472 
C 4198 1472 4307 1472 4307 1580 
C 4307 1695 4205 1695 4109 1695 
L 2413 1695 
L 2413 3386 
C 2413 3475 2413 3584 2304 3584 
C 2189 3584 2189 3482 2189 3386 
L 2189 1695 
L 493 1695 
C 403 1695 294 1695 294 1587 
C 294 1472 397 1472 493 1472 
L 2189 1472 
L 2189 -218 
C 2189 -307 2189 -416 2298 -416 
C 2413 -416 2413 -314 2413 -218 
L 2413 1472 
z
" transform="scale(0.015625)"/>
     </defs>
     <use xlink:href="#CMTI12-41" transform="scale(0.996264)"/>
     <use xlink:href="#CMTI12-55" transform="translate(69.92373 0) scale(0.996264)"/>
     <use xlink:href="#CMTI12-43" transform="translate(142.33818 0) scale(0.996264)"/>
     <use xlink:href="#CMR17-2b" transform="translate(226.606205 41.151544) scale(0.697382)"/>
    </g>
   </g>
   <g id="legend_1">
    <g id="patch_7">
     <path d="M 36.231526 100.94 
L 116.84 100.94 
Q 118.84 100.94 118.84 98.94 
L 118.84 80.065643 
Q 118.84 78.065643 116.84 78.065643 
L 36.231526 78.065643 
Q 34.231526 78.065643 34.231526 80.065643 
L 34.231526 98.94 
Q 34.231526 100.94 36.231526 100.94 
z
" style="fill: #ffffff; opacity: 0.8; stroke: #cccccc; stroke-linejoin: miter"/>
    </g>
    <g id="line2d_13">
     <path d="M 36.231526 83.565643 
L 46.231526 83.565643 
L 56.231526 83.565643 
" style="fill: none; stroke: #ff7f50; stroke-width: 1.5; stroke-linecap: square"/>
    </g>
    <g id="text_2">
     <!-- {AA} 0.9694 -->
     <g transform="translate(64.231526 87.065643) scale(0.1 -0.1)">
      <defs>
       <path id="CMSS17-41" d="M 2272 4416 
L 1722 4416 
L 166 0 
L 653 0 
L 1101 1280 
L 2816 1280 
L 3270 0 
L 3827 0 
L 2272 4416 
z
M 2694 1637 
L 1222 1637 
C 1530 2528 1914 3638 1958 3925 
L 1965 3925 
C 2010 3663 2138 3281 2246 2956 
L 2694 1637 
z
" transform="scale(0.015625)"/>
       <path id="CMSS17-30" d="M 2758 2044 
C 2758 2405 2752 3077 2490 3596 
C 2227 4096 1805 4229 1504 4229 
C 1069 4229 698 3975 506 3570 
C 301 3146 243 2709 243 2044 
C 243 1589 262 1031 493 543 
C 755 5 1197 -128 1498 -128 
C 1894 -128 2278 81 2496 518 
C 2720 974 2758 1474 2758 2044 
z
M 1498 261 
C 1011 261 864 811 819 995 
C 742 1310 730 1614 730 2114 
C 730 2506 730 2948 851 3297 
C 998 3701 1254 3840 1498 3840 
C 1971 3840 2125 3372 2176 3208 
C 2272 2873 2272 2481 2272 2114 
C 2272 1526 2272 261 1498 261 
z
" transform="scale(0.015625)"/>
       <path id="CMSS17-2e" d="M 1088 510 
L 576 510 
L 576 0 
L 1088 0 
L 1088 510 
z
" transform="scale(0.015625)"/>
       <path id="CMSS17-39" d="M 435 174 
C 614 21 845 -128 1235 -128 
C 2010 -128 2752 721 2752 2095 
C 2752 3932 1952 4229 1523 4229 
C 1094 4229 819 4041 582 3741 
C 301 3397 250 3090 250 2733 
C 250 2307 326 2045 506 1745 
C 749 1357 973 1275 1222 1275 
C 1600 1275 1978 1459 2234 1776 
C 2189 902 1798 267 1235 267 
C 1005 267 819 339 634 516 
L 435 174 
z
M 2214 2746 
C 2221 2703 2221 2622 2221 2596 
C 2221 2074 1914 1664 1466 1664 
C 1171 1664 1018 1813 902 2006 
C 762 2249 755 2485 755 2733 
C 755 2976 755 3244 934 3511 
C 1069 3703 1235 3840 1523 3840 
C 2112 3840 2208 3000 2214 2746 
z
" transform="scale(0.015625)"/>
       <path id="CMSS17-36" d="M 2496 4101 
C 2227 4210 2035 4229 1856 4229 
C 1024 4229 250 3368 250 2006 
C 250 265 986 -128 1510 -128 
C 1798 -128 2086 -39 2362 280 
C 2643 617 2752 898 2752 1389 
C 2752 2179 2362 2880 1779 2880 
C 1357 2880 992 2657 768 2376 
C 832 3258 1254 3840 1862 3840 
C 2029 3840 2246 3816 2496 3710 
L 2496 4101 
z
M 774 1369 
C 774 1420 774 1452 781 1548 
C 781 2045 1069 2491 1536 2491 
C 1837 2491 1990 2332 2106 2135 
C 2240 1886 2246 1650 2246 1388 
C 2246 1140 2246 891 2099 637 
C 1978 439 1818 267 1510 267 
C 902 267 800 1114 774 1369 
z
" transform="scale(0.015625)"/>
       <path id="CMSS17-34" d="M 2253 1088 
L 2835 1088 
L 2835 1477 
L 2253 1477 
L 2253 4192 
L 1690 4192 
L 166 1477 
L 166 1088 
L 1747 1088 
L 1747 0 
L 2253 0 
L 2253 1088 
z
M 659 1477 
C 1030 2127 1766 3439 1766 3885 
L 1766 1477 
L 659 1477 
z
" transform="scale(0.015625)"/>
      </defs>
      <use xlink:href="#CMSS17-41" transform="scale(0.996264)"/>
      <use xlink:href="#CMSS17-41" transform="translate(62.217855 0) scale(0.996264)"/>
      <use xlink:href="#CMSS17-30" transform="translate(155.664823 0) scale(0.996264)"/>
      <use xlink:href="#CMSS17-2e" transform="translate(202.508446 0) scale(0.996264)"/>
      <use xlink:href="#CMSS17-39" transform="translate(228.532651 0) scale(0.996264)"/>
      <use xlink:href="#CMSS17-36" transform="translate(275.376275 0) scale(0.996264)"/>
      <use xlink:href="#CMSS17-39" transform="translate(322.219898 0) scale(0.996264)"/>
      <use xlink:href="#CMSS17-34" transform="translate(369.063522 0) scale(0.996264)"/>
     </g>
    </g>
    <g id="line2d_14">
     <path d="M 36.231526 93.502822 
L 46.231526 93.502822 
L 56.231526 93.502822 
" style="fill: none; stroke: #1e90ff; stroke-opacity: 0.8; stroke-width: 1.5; stroke-linecap: square"/>
    </g>
    <g id="text_3">
     <!-- \textbf{BPT} 0.9864 -->
     <g transform="translate(64.231526 97.002822) scale(0.1 -0.1)">
      <defs>
       <path id="CMSSBX10-42" d="M 890 4480 
C 659 4480 582 4410 582 4173 
L 582 346 
C 582 116 653 39 890 39 
L 2643 39 
C 3117 39 4294 39 4294 1229 
C 4294 2156 3405 2300 3168 2340 
C 3757 2475 4096 2812 4096 3316 
C 4096 4480 2733 4480 2464 4480 
L 890 4480 
z
M 1485 2560 
L 1485 3911 
L 2234 3911 
C 2483 3911 3226 3911 3226 3300 
C 3226 2560 2387 2560 2227 2560 
L 1485 2560 
z
M 1485 576 
L 1485 2094 
L 2291 2094 
C 2515 2094 3405 2094 3405 1251 
C 3405 576 2720 576 2413 576 
L 1485 576 
z
" transform="scale(0.015625)"/>
       <path id="CMSSBX10-50" d="M 1523 1728 
L 2496 1728 
C 3501 1728 4102 2155 4102 3085 
C 4102 4060 3475 4480 2490 4480 
L 890 4480 
C 659 4480 582 4409 582 4170 
L 582 298 
C 582 66 653 -12 890 -12 
L 1216 -12 
C 1459 -12 1523 72 1523 299 
L 1523 1728 
z
M 2291 3924 
C 3130 3924 3213 3537 3213 3085 
C 3213 2652 3142 2239 2285 2239 
L 1504 2239 
L 1504 3924 
L 2291 3924 
z
" transform="scale(0.015625)"/>
       <path id="CMSSBX10-54" d="M 1875 3776 
L 1875 308 
C 1875 78 1946 0 2182 0 
L 2509 0 
C 2752 0 2816 84 2816 308 
L 2816 3776 
C 3098 3776 3814 3776 4096 3776 
C 4275 3776 4429 3776 4429 4083 
L 4429 4135 
C 4429 4340 4384 4443 4122 4443 
L 563 4443 
C 333 4443 256 4372 256 4135 
L 256 4083 
C 256 3776 410 3776 589 3776 
L 1875 3776 
z
" transform="scale(0.015625)"/>
       <path id="CMSS17-38" d="M 1933 2222 
C 2419 2380 2669 2760 2669 3134 
C 2669 3722 2157 4229 1504 4229 
C 826 4229 333 3708 333 3144 
C 333 2780 576 2403 1069 2241 
C 442 1997 250 1512 250 1149 
C 250 446 819 -128 1498 -128 
C 2202 -128 2752 455 2752 1138 
C 2752 1557 2502 2000 1933 2222 
z
M 1504 2432 
C 1075 2432 787 2712 787 3136 
C 787 3566 1075 3840 1504 3840 
C 1901 3840 2214 3591 2214 3136 
C 2214 2687 1907 2432 1504 2432 
z
M 1504 267 
C 1139 267 749 517 749 1156 
C 749 1813 1184 2043 1498 2043 
C 1843 2043 2253 1800 2253 1156 
C 2253 491 1830 267 1504 267 
z
" transform="scale(0.015625)"/>
      </defs>
      <use xlink:href="#CMSSBX10-42" transform="scale(0.996264)"/>
      <use xlink:href="#CMSSBX10-50" transform="translate(73.059766 0) scale(0.996264)"/>
      <use xlink:href="#CMSSBX10-54" transform="translate(143.075375 0) scale(0.996264)"/>
      <use xlink:href="#CMSS17-30" transform="translate(247.364254 0) scale(0.996264)"/>
      <use xlink:href="#CMSS17-2e" transform="translate(294.207878 0) scale(0.996264)"/>
      <use xlink:href="#CMSS17-39" transform="translate(320.232083 0) scale(0.996264)"/>
      <use xlink:href="#CMSS17-38" transform="translate(367.075706 0) scale(0.996264)"/>
      <use xlink:href="#CMSS17-36" transform="translate(413.91933 0) scale(0.996264)"/>
      <use xlink:href="#CMSS17-34" transform="translate(460.762953 0) scale(0.996264)"/>
     </g>
    </g>
   </g>
  </g>
 </g>
 <defs>
  <clipPath id="p503c13eece">
   <rect x="4.94" y="18.509588" width="118.9" height="87.430412"/>
  </clipPath>
 </defs>
 <defs>
  <pattern id="ha87c4fbe53" patternUnits="userSpaceOnUse" x="0" y="0" width="72" height="72">
   <rect x="0" y="0" width="73" height="73" fill="#ff7f50"/>
   <path d="M -36 36 
L 36 -36 
M -32 40 
L 40 -32 
M -28 44 
L 44 -28 
M -24 48 
L 48 -24 
M -20 52 
L 52 -20 
M -16 56 
L 56 -16 
M -12 60 
L 60 -12 
M -8 64 
L 64 -8 
M -4 68 
L 68 -4 
M 0 72 
L 72 0 
M 4 76 
L 76 4 
M 8 80 
L 80 8 
M 12 84 
L 84 12 
M 16 88 
L 88 16 
M 20 92 
L 92 20 
M 24 96 
L 96 24 
M 28 100 
L 100 28 
M 32 104 
L 104 32 
M 36 108 
L 108 36 
" style="fill: #ff7f50; stroke: #ff7f50; stroke-width: 1.0; stroke-linecap: butt; stroke-linejoin: miter; stroke-opacity: 0.15"/>
  </pattern>
  <pattern id="hcf309311bb" patternUnits="userSpaceOnUse" x="0" y="0" width="72" height="72">
   <rect x="0" y="0" width="73" height="73" fill="#1e90ff"/>
   <path d="M -36 36 
L 36 108 
M -32 32 
L 40 104 
M -28 28 
L 44 100 
M -24 24 
L 48 96 
M -20 20 
L 52 92 
M -16 16 
L 56 88 
M -12 12 
L 60 84 
M -8 8 
L 64 80 
M -4 4 
L 68 76 
M 0 0 
L 72 72 
M 4 -4 
L 76 68 
M 8 -8 
L 80 64 
M 12 -12 
L 84 60 
M 16 -16 
L 88 56 
M 20 -20 
L 92 52 
M 24 -24 
L 96 48 
M 28 -28 
L 100 44 
M 32 -32 
L 104 40 
M 36 -36 
L 108 36 
" style="fill: #1e90ff; stroke: #1e90ff; stroke-width: 1.0; stroke-linecap: butt; stroke-linejoin: miter; stroke-opacity: 0.15"/>
  </pattern>
 </defs>
</svg>
