<?xml version="1.0" encoding="utf-8" standalone="no"?>
<!DOCTYPE svg PUBLIC "-//W3C//DTD SVG 1.1//EN"
  "http://www.w3.org/Graphics/SVG/1.1/DTD/svg11.dtd">
<svg xmlns:xlink="http://www.w3.org/1999/xlink" width="125.28pt" height="110.88pt" viewBox="0 0 125.28 110.88" xmlns="http://www.w3.org/2000/svg" version="1.1">
 <metadata>
  <rdf:RDF xmlns:dc="http://purl.org/dc/elements/1.1/" xmlns:cc="http://creativecommons.org/ns#" xmlns:rdf="http://www.w3.org/1999/02/22-rdf-syntax-ns#">
   <cc:Work>
    <dc:type rdf:resource="http://purl.org/dc/dcmitype/StillImage"/>
    <dc:date>2025-03-07T10:30:31.691843</dc:date>
    <dc:format>image/svg+xml</dc:format>
    <dc:creator>
     <cc:Agent>
      <dc:title>Matplotlib v3.9.2, https://matplotlib.org/</dc:title>
     </cc:Agent>
    </dc:creator>
   </cc:Work>
  </rdf:RDF>
 </metadata>
 <defs>
  <style type="text/css">*{stroke-linejoin: round; stroke-linecap: butt}</style>
 </defs>
 <g id="figure_1">
  <g id="patch_1">
   <path d="M 0 110.88 
L 125.28 110.88 
L 125.28 0 
L 0 0 
z
" style="fill: #ffffff"/>
  </g>
  <g id="axes_1">
   <g id="patch_2">
    <path d="M 4.94 105.94 
L 123.84 105.94 
L 123.84 18.509588 
L 4.94 18.509588 
z
" style="fill: #ffffff"/>
   </g>
   <g id="line2d_1">
    <path d="M 4.94 104.178278 
L 123.84 104.178278 
" clip-path="url(#p1a61e2db88)" style="fill: none; stroke: #d3d3d3; stroke-width: 1.5; stroke-linecap: square"/>
   </g>
   <g id="PolyCollection_1">
    <path d="M 10.344545 104.178278 
L 10.344545 104.178042 
L 11.611236 101.826179 
L 12.877926 102.151081 
L 13.722386 101.211221 
L 15.411307 82.053267 
L 16.255767 81.504502 
L 17.522457 68.94383 
L 18.366918 71.584462 
L 19.633608 79.215068 
L 20.478068 79.916925 
L 21.322528 81.889277 
L 23.011449 77.286547 
L 23.855909 77.506261 
L 25.122599 78.278057 
L 25.54483 79.990137 
L 26.81152 84.345415 
L 28.50044 72.782888 
L 29.344901 74.866519 
L 30.189361 75.019686 
L 31.033821 73.640524 
L 32.300511 74.802971 
L 33.144972 73.93437 
L 35.678352 84.710372 
L 36.522813 86.618015 
L 38.211733 88.529317 
L 39.056193 89.024951 
L 40.745114 93.670793 
L 42.011804 95.481236 
L 43.700724 94.639895 
L 45.389645 93.990703 
L 48.767486 94.18897 
L 52.567557 93.693047 
L 54.678707 91.618778 
L 56.367628 90.682298 
L 58.478778 91.061322 
L 60.589929 90.579155 
L 62.278849 89.167416 
L 64.81223 93.674638 
L 65.65669 93.19662 
L 69.034531 95.265263 
L 70.723452 95.361455 
L 72.412372 97.427825 
L 74.101293 97.019666 
L 77.479134 97.241495 
L 79.168054 98.175389 
L 80.012514 101.7746 
L 83.390355 102.141969 
L 85.079276 102.117378 
L 86.768196 102.533138 
L 88.457116 103.147062 
L 89.301577 103.148406 
L 90.990497 103.853472 
L 91.834957 103.862275 
L 95.212798 103.687546 
L 96.057259 103.663068 
L 99.435099 103.941065 
L 100.27956 103.84291 
L 104.501861 103.950871 
L 105.768551 104.084037 
L 107.035241 104.130906 
L 107.879702 104.058088 
L 109.146392 104.015256 
L 109.990852 103.940498 
L 111.257543 103.959417 
L 112.524233 104.010664 
L 113.368693 104.136476 
L 114.213153 104.165631 
L 115.902074 104.178262 
L 116.746534 104.175044 
L 118.013224 104.177998 
L 118.435455 104.178135 
L 118.435455 104.178278 
L 118.435455 104.178278 
L 118.013224 104.178278 
L 116.746534 104.178278 
L 115.902074 104.178278 
L 114.213153 104.178278 
L 113.368693 104.178278 
L 112.524233 104.178278 
L 111.257543 104.178278 
L 109.990852 104.178278 
L 109.146392 104.178278 
L 107.879702 104.178278 
L 107.035241 104.178278 
L 105.768551 104.178278 
L 104.501861 104.178278 
L 100.27956 104.178278 
L 99.435099 104.178278 
L 96.057259 104.178278 
L 95.212798 104.178278 
L 91.834957 104.178278 
L 90.990497 104.178278 
L 89.301577 104.178278 
L 88.457116 104.178278 
L 86.768196 104.178278 
L 85.079276 104.178278 
L 83.390355 104.178278 
L 80.012514 104.178278 
L 79.168054 104.178278 
L 77.479134 104.178278 
L 74.101293 104.178278 
L 72.412372 104.178278 
L 70.723452 104.178278 
L 69.034531 104.178278 
L 65.65669 104.178278 
L 64.81223 104.178278 
L 62.278849 104.178278 
L 60.589929 104.178278 
L 58.478778 104.178278 
L 56.367628 104.178278 
L 54.678707 104.178278 
L 52.567557 104.178278 
L 48.767486 104.178278 
L 45.389645 104.178278 
L 43.700724 104.178278 
L 42.011804 104.178278 
L 40.745114 104.178278 
L 39.056193 104.178278 
L 38.211733 104.178278 
L 36.522813 104.178278 
L 35.678352 104.178278 
L 33.144972 104.178278 
L 32.300511 104.178278 
L 31.033821 104.178278 
L 30.189361 104.178278 
L 29.344901 104.178278 
L 28.50044 104.178278 
L 26.81152 104.178278 
L 25.54483 104.178278 
L 25.122599 104.178278 
L 23.855909 104.178278 
L 23.011449 104.178278 
L 21.322528 104.178278 
L 20.478068 104.178278 
L 19.633608 104.178278 
L 18.366918 104.178278 
L 17.522457 104.178278 
L 16.255767 104.178278 
L 15.411307 104.178278 
L 13.722386 104.178278 
L 12.877926 104.178278 
L 11.611236 104.178278 
L 10.344545 104.178278 
z
" clip-path="url(#p1a61e2db88)" style="fill: url(#h493eb3f550); fill-opacity: 0.15; stroke: #ff7f50; stroke-opacity: 0.15"/>
   </g>
   <g id="PolyCollection_2">
    <path d="M 10.344545 104.178278 
L 10.344545 104.178042 
L 11.503524 103.902148 
L 12.567716 100.628051 
L 13.771934 95.987412 
L 14.771499 99.619825 
L 15.924015 99.911432 
L 16.886958 101.316707 
L 18.067479 101.699829 
L 18.995954 101.153232 
L 20.325117 103.010936 
L 21.238513 103.614821 
L 22.253158 102.266141 
L 23.789128 102.343725 
L 24.566807 102.597366 
L 25.549138 102.936681 
L 26.733967 103.577238 
L 27.673214 103.680871 
L 29.403065 103.859768 
L 48.05228 103.885207 
L 48.603764 103.923829 
L 74.312408 104.124989 
L 89.140009 104.158384 
L 111.186453 104.172715 
L 112.033067 104.170031 
L 114.333791 104.153532 
L 115.865452 104.133867 
L 116.313533 104.148572 
L 117.448815 104.137192 
L 118.435455 104.178124 
L 118.435455 104.178278 
L 118.435455 104.178278 
L 117.448815 104.178278 
L 116.313533 104.178278 
L 115.865452 104.178278 
L 114.333791 104.178278 
L 112.033067 104.178278 
L 111.186453 104.178278 
L 89.140009 104.178278 
L 74.312408 104.178278 
L 48.603764 104.178278 
L 48.05228 104.178278 
L 29.403065 104.178278 
L 27.673214 104.178278 
L 26.733967 104.178278 
L 25.549138 104.178278 
L 24.566807 104.178278 
L 23.789128 104.178278 
L 22.253158 104.178278 
L 21.238513 104.178278 
L 20.325117 104.178278 
L 18.995954 104.178278 
L 18.067479 104.178278 
L 16.886958 104.178278 
L 15.924015 104.178278 
L 14.771499 104.178278 
L 13.771934 104.178278 
L 12.567716 104.178278 
L 11.503524 104.178278 
L 10.344545 104.178278 
z
" clip-path="url(#p1a61e2db88)" style="fill: url(#hfb35f5a89e); fill-opacity: 0.15; stroke: #1e90ff; stroke-opacity: 0.15"/>
   </g>
   <g id="matplotlib.axis_1">
    <g id="xtick_1">
     <g id="line2d_2">
      <defs>
       <path id="mc8ad5f547e" d="M 0 0 
L 0 3.5 
" style="stroke: #000000; stroke-width: 0.8"/>
      </defs>
      <g>
       <use xlink:href="#mc8ad5f547e" x="10.344545" y="105.94" style="stroke: #000000; stroke-width: 0.8"/>
      </g>
     </g>
    </g>
    <g id="xtick_2">
     <g id="line2d_3">
      <g>
       <use xlink:href="#mc8ad5f547e" x="64.39" y="105.94" style="stroke: #000000; stroke-width: 0.8"/>
      </g>
     </g>
    </g>
    <g id="xtick_3">
     <g id="line2d_4">
      <g>
       <use xlink:href="#mc8ad5f547e" x="118.435455" y="105.94" style="stroke: #000000; stroke-width: 0.8"/>
      </g>
     </g>
    </g>
   </g>
   <g id="matplotlib.axis_2">
    <g id="ytick_1">
     <g id="line2d_5">
      <defs>
       <path id="m4ab2c9fe40" d="M 0 0 
L -3.5 0 
" style="stroke: #000000; stroke-width: 0.8"/>
      </defs>
      <g>
       <use xlink:href="#m4ab2c9fe40" x="4.94" y="104.178278" style="stroke: #000000; stroke-width: 0.8"/>
      </g>
     </g>
    </g>
    <g id="ytick_2">
     <g id="line2d_6">
      <g>
       <use xlink:href="#m4ab2c9fe40" x="4.94" y="75.622048" style="stroke: #000000; stroke-width: 0.8"/>
      </g>
     </g>
    </g>
    <g id="ytick_3">
     <g id="line2d_7">
      <g>
       <use xlink:href="#m4ab2c9fe40" x="4.94" y="47.065818" style="stroke: #000000; stroke-width: 0.8"/>
      </g>
     </g>
    </g>
    <g id="ytick_4">
     <g id="line2d_8">
      <g>
       <use xlink:href="#m4ab2c9fe40" x="4.94" y="18.509588" style="stroke: #000000; stroke-width: 0.8"/>
      </g>
     </g>
    </g>
   </g>
   <g id="line2d_9">
    <path d="M 10.344545 104.178042 
L 11.611236 101.826179 
L 12.877926 102.151081 
L 13.722386 101.211221 
L 15.411307 82.053267 
L 16.255767 81.504502 
L 17.522457 68.94383 
L 18.366918 71.584462 
L 19.633608 79.215068 
L 20.478068 79.916925 
L 21.322528 81.889277 
L 23.011449 77.286547 
L 23.855909 77.506261 
L 25.122599 78.278057 
L 25.54483 79.990137 
L 26.81152 84.345415 
L 28.50044 72.782888 
L 29.344901 74.866519 
L 30.189361 75.019686 
L 31.033821 73.640524 
L 32.300511 74.802971 
L 33.144972 73.93437 
L 35.678352 84.710372 
L 36.522813 86.618015 
L 38.211733 88.529317 
L 39.056193 89.024951 
L 40.745114 93.670793 
L 42.011804 95.481236 
L 43.700724 94.639895 
L 45.389645 93.990703 
L 48.767486 94.18897 
L 52.567557 93.693047 
L 54.678707 91.618778 
L 56.367628 90.682298 
L 58.478778 91.061322 
L 60.589929 90.579155 
L 62.278849 89.167416 
L 64.81223 93.674638 
L 65.65669 93.19662 
L 69.034531 95.265263 
L 70.723452 95.361455 
L 72.412372 97.427825 
L 74.101293 97.019666 
L 77.479134 97.241495 
L 79.168054 98.175389 
L 80.012514 101.7746 
L 83.390355 102.141969 
L 85.079276 102.117378 
L 86.768196 102.533138 
L 88.457116 103.147062 
L 89.301577 103.148406 
L 90.990497 103.853472 
L 91.834957 103.862275 
L 95.212798 103.687546 
L 96.057259 103.663068 
L 99.435099 103.941065 
L 100.27956 103.84291 
L 104.501861 103.950871 
L 105.768551 104.084037 
L 107.035241 104.130906 
L 107.879702 104.058088 
L 109.146392 104.015256 
L 109.990852 103.940498 
L 111.257543 103.959417 
L 112.524233 104.010664 
L 113.368693 104.136476 
L 114.213153 104.165631 
L 115.902074 104.178262 
L 116.746534 104.175044 
L 118.013224 104.177998 
L 118.435455 104.178135 
" clip-path="url(#p1a61e2db88)" style="fill: none; stroke: #ff7f50; stroke-width: 1.5; stroke-linecap: square"/>
   </g>
   <g id="line2d_10">
    <path d="M 10.344545 104.178042 
L 11.503524 103.902148 
L 12.567716 100.628051 
L 13.771934 95.987412 
L 14.771499 99.619825 
L 15.924015 99.911432 
L 16.886958 101.316707 
L 18.067479 101.699829 
L 18.995954 101.153232 
L 20.325117 103.010936 
L 21.238513 103.614821 
L 22.253158 102.266141 
L 23.789128 102.343725 
L 24.566807 102.597366 
L 25.549138 102.936681 
L 26.733967 103.577238 
L 27.673214 103.680871 
L 29.403065 103.859768 
L 48.05228 103.885207 
L 48.603764 103.923829 
L 74.312408 104.124989 
L 89.140009 104.158384 
L 111.186453 104.172715 
L 112.033067 104.170031 
L 114.333791 104.153532 
L 115.865452 104.133867 
L 116.313533 104.148572 
L 117.448815 104.137192 
L 118.435455 104.178124 
" clip-path="url(#p1a61e2db88)" style="fill: none; stroke: #1e90ff; stroke-opacity: 0.8; stroke-width: 1.5; stroke-linecap: square"/>
   </g>
   <g id="patch_3">
    <path d="M 4.94 105.94 
L 4.94 18.509588 
" style="fill: none; stroke: #000000; stroke-width: 0.8; stroke-linejoin: miter; stroke-linecap: square"/>
   </g>
   <g id="patch_4">
    <path d="M 123.84 105.94 
L 123.84 18.509588 
" style="fill: none; stroke: #000000; stroke-width: 0.8; stroke-linejoin: miter; stroke-linecap: square"/>
   </g>
   <g id="patch_5">
    <path d="M 4.94 105.94 
L 123.84 105.94 
" style="fill: none; stroke: #000000; stroke-width: 0.8; stroke-linejoin: miter; stroke-linecap: square"/>
   </g>
   <g id="patch_6">
    <path d="M 4.94 18.509588 
L 123.84 18.509588 
" style="fill: none; stroke: #000000; stroke-width: 0.8; stroke-linejoin: miter; stroke-linecap: square"/>
   </g>
   <g id="text_1">
    <!-- $\mathit{MSE}^{+}$ -->
    <g transform="translate(42.420369 12.509588) scale(0.16 -0.16)">
     <defs>
      <path id="CMTI12-4d" d="M 5594 3898 
C 5651 4116 5690 4167 6086 4167 
C 6195 4167 6253 4167 6253 4282 
C 6253 4352 6208 4352 6099 4352 
L 5350 4352 
C 5216 4352 5197 4352 5133 4250 
L 2957 594 
L 2611 4211 
C 2598 4352 2592 4352 2438 4352 
L 1664 4352 
C 1549 4352 1491 4352 1491 4231 
C 1491 4167 1536 4167 1658 4167 
C 1818 4167 1997 4167 1997 4065 
C 1997 4025 1997 4006 1984 3968 
L 1152 616 
C 1043 186 736 186 544 186 
C 512 186 448 186 448 67 
C 448 6 499 0 525 0 
C 704 0 902 0 1088 0 
C 1280 0 1478 0 1664 0 
C 1702 0 1773 0 1773 122 
C 1773 180 1722 186 1683 186 
C 1491 186 1312 230 1312 447 
C 1312 505 1338 594 1338 601 
L 2202 4052 
L 2208 4052 
L 2579 141 
C 2592 19 2605 0 2682 0 
C 2758 0 2778 32 2829 115 
L 5203 4090 
L 5210 4090 
L 4301 460 
C 4243 237 4205 186 3814 186 
C 3699 186 3642 186 3642 64 
C 3642 0 3706 0 3725 0 
C 3942 0 4173 0 4397 0 
C 4627 0 4864 0 5088 0 
C 5133 0 5203 0 5203 122 
C 5203 186 5152 186 5056 186 
C 4698 186 4698 234 4698 288 
C 4698 339 4704 371 4710 384 
L 5594 3898 
z
" transform="scale(0.015625)"/>
      <path id="CMTI12-53" d="M 3968 4334 
C 3974 4353 3987 4403 3987 4423 
C 3987 4480 3936 4480 3923 4480 
C 3904 4480 3885 4480 3834 4410 
L 3546 4028 
C 3309 4480 2835 4480 2720 4480 
C 1971 4480 1267 3743 1267 2980 
C 1267 2840 1280 2579 1510 2332 
C 1645 2186 1760 2155 2202 2027 
C 2278 2001 2541 1926 2592 1913 
C 2861 1824 2976 1575 2976 1290 
C 2976 712 2477 57 1894 57 
C 1402 57 947 305 947 954 
C 947 1017 960 1189 998 1341 
L 1005 1392 
C 1005 1449 954 1449 922 1449 
C 851 1449 838 1442 813 1340 
L 480 18 
C 474 -1 461 -51 461 -71 
C 461 -128 512 -128 525 -128 
C 550 -128 557 -122 621 -45 
L 909 337 
C 1082 76 1370 -128 1875 -128 
C 2650 -128 3366 685 3366 1512 
C 3366 2013 3110 2299 2790 2401 
C 2739 2413 2291 2548 2170 2586 
C 1965 2642 1664 2732 1664 3208 
C 1664 3755 2170 4308 2707 4308 
C 3475 4308 3475 3596 3475 3399 
C 3475 3316 3475 3208 3450 3024 
C 3437 2986 3437 2973 3437 2967 
C 3437 2903 3482 2903 3526 2903 
C 3597 2903 3610 2910 3635 3012 
L 3968 4334 
z
" transform="scale(0.015625)"/>
      <path id="CMTI12-45" d="M 4282 1501 
C 4307 1560 4307 1573 4307 1579 
C 4307 1643 4243 1643 4224 1643 
C 4192 1643 4173 1643 4154 1624 
C 4141 1611 4090 1482 4058 1412 
C 3706 551 3443 185 2490 185 
L 1709 185 
C 1523 185 1517 192 1517 262 
C 1517 288 1517 301 1542 391 
L 1984 2176 
L 2541 2176 
C 2970 2176 3021 2073 3021 1893 
C 3021 1778 2976 1598 2963 1546 
C 2963 1533 2950 1508 2950 1489 
C 2950 1425 3014 1425 3040 1425 
C 3117 1425 3123 1450 3142 1533 
L 3501 2951 
C 3507 2977 3514 3015 3514 3041 
C 3514 3104 3450 3104 3430 3104 
C 3354 3104 3347 3085 3328 2997 
C 3200 2513 3085 2361 2560 2361 
L 2029 2361 
L 2426 3937 
C 2483 4160 2528 4160 2733 4160 
L 3533 4160 
C 4301 4160 4371 3901 4371 3515 
C 4371 3458 4371 3331 4339 3129 
C 4339 3097 4326 3034 4326 3002 
C 4326 2933 4384 2933 4416 2933 
C 4493 2933 4493 2952 4512 3066 
L 4666 4192 
C 4666 4212 4678 4262 4678 4281 
C 4678 4351 4627 4351 4518 4351 
L 1632 4351 
C 1523 4351 1466 4351 1466 4226 
C 1466 4160 1517 4160 1619 4160 
C 1971 4160 1971 4112 1971 4052 
C 1971 4033 1971 4020 1946 3931 
L 1082 460 
C 1024 236 986 185 595 185 
C 480 185 422 185 422 64 
C 422 0 474 0 576 0 
L 3546 0 
C 3674 0 3680 6 3718 102 
L 4282 1501 
z
" transform="scale(0.015625)"/>
      <path id="CMR17-2b" d="M 2413 1472 
L 4109 1472 
C 4198 1472 4307 1472 4307 1580 
C 4307 1695 4205 1695 4109 1695 
L 2413 1695 
L 2413 3386 
C 2413 3475 2413 3584 2304 3584 
C 2189 3584 2189 3482 2189 3386 
L 2189 1695 
L 493 1695 
C 403 1695 294 1695 294 1587 
C 294 1472 397 1472 493 1472 
L 2189 1472 
L 2189 -218 
C 2189 -307 2189 -416 2298 -416 
C 2413 -416 2413 -314 2413 -218 
L 2413 1472 
z
" transform="scale(0.015625)"/>
     </defs>
     <use xlink:href="#CMTI12-4d" transform="scale(0.996264)"/>
     <use xlink:href="#CMTI12-53" transform="translate(87.358563 0) scale(0.996264)"/>
     <use xlink:href="#CMTI12-45" transform="translate(142.153661 0) scale(0.996264)"/>
     <use xlink:href="#CMR17-2b" transform="translate(220.379464 41.151544) scale(0.697382)"/>
    </g>
   </g>
   <g id="legend_1">
    <g id="patch_7">
     <path d="M 26.268856 46.383945 
L 116.84 46.383945 
Q 118.84 46.383945 118.84 44.383945 
L 118.84 25.509588 
Q 118.84 23.509588 116.84 23.509588 
L 26.268856 23.509588 
Q 24.268856 23.509588 24.268856 25.509588 
L 24.268856 44.383945 
Q 24.268856 46.383945 26.268856 46.383945 
z
" style="fill: #ffffff; opacity: 0.8; stroke: #cccccc; stroke-linejoin: miter"/>
    </g>
    <g id="line2d_11">
     <path d="M 26.268856 29.009588 
L 36.268856 29.009588 
L 46.268856 29.009588 
" style="fill: none; stroke: #ff7f50; stroke-width: 1.5; stroke-linecap: square"/>
    </g>
    <g id="text_2">
     <!-- {AA} 0.1718 -->
     <g transform="translate(54.268856 32.509588) scale(0.1 -0.1)">
      <defs>
       <path id="CMSS17-41" d="M 2272 4416 
L 1722 4416 
L 166 0 
L 653 0 
L 1101 1280 
L 2816 1280 
L 3270 0 
L 3827 0 
L 2272 4416 
z
M 2694 1637 
L 1222 1637 
C 1530 2528 1914 3638 1958 3925 
L 1965 3925 
C 2010 3663 2138 3281 2246 2956 
L 2694 1637 
z
" transform="scale(0.015625)"/>
       <path id="CMSS17-30" d="M 2758 2044 
C 2758 2405 2752 3077 2490 3596 
C 2227 4096 1805 4229 1504 4229 
C 1069 4229 698 3975 506 3570 
C 301 3146 243 2709 243 2044 
C 243 1589 262 1031 493 543 
C 755 5 1197 -128 1498 -128 
C 1894 -128 2278 81 2496 518 
C 2720 974 2758 1474 2758 2044 
z
M 1498 261 
C 1011 261 864 811 819 995 
C 742 1310 730 1614 730 2114 
C 730 2506 730 2948 851 3297 
C 998 3701 1254 3840 1498 3840 
C 1971 3840 2125 3372 2176 3208 
C 2272 2873 2272 2481 2272 2114 
C 2272 1526 2272 261 1498 261 
z
" transform="scale(0.015625)"/>
       <path id="CMSS17-2e" d="M 1088 510 
L 576 510 
L 576 0 
L 1088 0 
L 1088 510 
z
" transform="scale(0.015625)"/>
       <path id="CMSS17-31" d="M 1818 4288 
L 1696 4288 
C 1350 3940 947 3890 538 3890 
L 538 3520 
C 723 3520 1024 3520 1325 3667 
L 1325 369 
L 570 369 
L 570 0 
L 2573 0 
L 2573 369 
L 1818 369 
L 1818 4288 
z
" transform="scale(0.015625)"/>
       <path id="CMSS17-37" d="M 1389 3776 
C 1466 3776 1542 3776 1619 3776 
L 2355 3776 
C 1440 2711 915 1365 915 -32 
L 1427 -32 
C 1427 1323 1875 2696 2752 3795 
L 2752 4209 
L 250 4209 
L 250 3776 
L 1389 3776 
z
" transform="scale(0.015625)"/>
       <path id="CMSS17-38" d="M 1933 2222 
C 2419 2380 2669 2760 2669 3134 
C 2669 3722 2157 4229 1504 4229 
C 826 4229 333 3708 333 3144 
C 333 2780 576 2403 1069 2241 
C 442 1997 250 1512 250 1149 
C 250 446 819 -128 1498 -128 
C 2202 -128 2752 455 2752 1138 
C 2752 1557 2502 2000 1933 2222 
z
M 1504 2432 
C 1075 2432 787 2712 787 3136 
C 787 3566 1075 3840 1504 3840 
C 1901 3840 2214 3591 2214 3136 
C 2214 2687 1907 2432 1504 2432 
z
M 1504 267 
C 1139 267 749 517 749 1156 
C 749 1813 1184 2043 1498 2043 
C 1843 2043 2253 1800 2253 1156 
C 2253 491 1830 267 1504 267 
z
" transform="scale(0.015625)"/>
      </defs>
      <use xlink:href="#CMSS17-41" transform="scale(0.996264)"/>
      <use xlink:href="#CMSS17-41" transform="translate(62.217855 0) scale(0.996264)"/>
      <use xlink:href="#CMSS17-30" transform="translate(155.664823 0) scale(0.996264)"/>
      <use xlink:href="#CMSS17-2e" transform="translate(202.508446 0) scale(0.996264)"/>
      <use xlink:href="#CMSS17-31" transform="translate(228.532651 0) scale(0.996264)"/>
      <use xlink:href="#CMSS17-37" transform="translate(275.376275 0) scale(0.996264)"/>
      <use xlink:href="#CMSS17-31" transform="translate(322.219898 0) scale(0.996264)"/>
      <use xlink:href="#CMSS17-38" transform="translate(369.063522 0) scale(0.996264)"/>
     </g>
    </g>
    <g id="line2d_12">
     <path d="M 26.268856 38.946767 
L 36.268856 38.946767 
L 46.268856 38.946767 
" style="fill: none; stroke: #1e90ff; stroke-opacity: 0.8; stroke-width: 1.5; stroke-linecap: square"/>
    </g>
    <g id="text_3">
     <!-- \textbf{BPT} 0.008341 -->
     <g transform="translate(54.268856 42.446767) scale(0.1 -0.1)">
      <defs>
       <path id="CMSSBX10-42" d="M 890 4480 
C 659 4480 582 4410 582 4173 
L 582 346 
C 582 116 653 39 890 39 
L 2643 39 
C 3117 39 4294 39 4294 1229 
C 4294 2156 3405 2300 3168 2340 
C 3757 2475 4096 2812 4096 3316 
C 4096 4480 2733 4480 2464 4480 
L 890 4480 
z
M 1485 2560 
L 1485 3911 
L 2234 3911 
C 2483 3911 3226 3911 3226 3300 
C 3226 2560 2387 2560 2227 2560 
L 1485 2560 
z
M 1485 576 
L 1485 2094 
L 2291 2094 
C 2515 2094 3405 2094 3405 1251 
C 3405 576 2720 576 2413 576 
L 1485 576 
z
" transform="scale(0.015625)"/>
       <path id="CMSSBX10-50" d="M 1523 1728 
L 2496 1728 
C 3501 1728 4102 2155 4102 3085 
C 4102 4060 3475 4480 2490 4480 
L 890 4480 
C 659 4480 582 4409 582 4170 
L 582 298 
C 582 66 653 -12 890 -12 
L 1216 -12 
C 1459 -12 1523 72 1523 299 
L 1523 1728 
z
M 2291 3924 
C 3130 3924 3213 3537 3213 3085 
C 3213 2652 3142 2239 2285 2239 
L 1504 2239 
L 1504 3924 
L 2291 3924 
z
" transform="scale(0.015625)"/>
       <path id="CMSSBX10-54" d="M 1875 3776 
L 1875 308 
C 1875 78 1946 0 2182 0 
L 2509 0 
C 2752 0 2816 84 2816 308 
L 2816 3776 
C 3098 3776 3814 3776 4096 3776 
C 4275 3776 4429 3776 4429 4083 
L 4429 4135 
C 4429 4340 4384 4443 4122 4443 
L 563 4443 
C 333 4443 256 4372 256 4135 
L 256 4083 
C 256 3776 410 3776 589 3776 
L 1875 3776 
z
" transform="scale(0.015625)"/>
       <path id="CMSS17-33" d="M 1005 2025 
L 1440 2025 
C 2042 2025 2214 1507 2214 1146 
C 2214 653 1933 267 1472 267 
C 1114 267 608 444 320 912 
C 275 691 275 678 250 526 
C 550 88 1037 -128 1485 -128 
C 2214 -128 2752 473 2752 1138 
C 2752 1638 2400 2057 1920 2215 
C 2304 2424 2586 2816 2586 3273 
C 2586 3805 2093 4229 1491 4229 
C 941 4229 512 3892 333 3530 
C 378 3468 493 3284 550 3189 
C 691 3562 1056 3840 1485 3840 
C 1843 3840 2080 3607 2080 3271 
C 2080 2923 1856 2543 1478 2455 
C 1453 2455 1056 2417 1005 2411 
L 1005 2025 
z
" transform="scale(0.015625)"/>
       <path id="CMSS17-34" d="M 2253 1088 
L 2835 1088 
L 2835 1477 
L 2253 1477 
L 2253 4192 
L 1690 4192 
L 166 1477 
L 166 1088 
L 1747 1088 
L 1747 0 
L 2253 0 
L 2253 1088 
z
M 659 1477 
C 1030 2127 1766 3439 1766 3885 
L 1766 1477 
L 659 1477 
z
" transform="scale(0.015625)"/>
      </defs>
      <use xlink:href="#CMSSBX10-42" transform="scale(0.996264)"/>
      <use xlink:href="#CMSSBX10-50" transform="translate(73.059766 0) scale(0.996264)"/>
      <use xlink:href="#CMSSBX10-54" transform="translate(143.075375 0) scale(0.996264)"/>
      <use xlink:href="#CMSS17-30" transform="translate(247.364254 0) scale(0.996264)"/>
      <use xlink:href="#CMSS17-2e" transform="translate(294.207878 0) scale(0.996264)"/>
      <use xlink:href="#CMSS17-30" transform="translate(320.232083 0) scale(0.996264)"/>
      <use xlink:href="#CMSS17-30" transform="translate(367.075706 0) scale(0.996264)"/>
      <use xlink:href="#CMSS17-38" transform="translate(413.91933 0) scale(0.996264)"/>
      <use xlink:href="#CMSS17-33" transform="translate(460.762953 0) scale(0.996264)"/>
      <use xlink:href="#CMSS17-34" transform="translate(507.606577 0) scale(0.996264)"/>
      <use xlink:href="#CMSS17-31" transform="translate(554.4502 0) scale(0.996264)"/>
     </g>
    </g>
   </g>
  </g>
 </g>
 <defs>
  <clipPath id="p1a61e2db88">
   <rect x="4.94" y="18.509588" width="118.9" height="87.430412"/>
  </clipPath>
 </defs>
 <defs>
  <pattern id="h493eb3f550" patternUnits="userSpaceOnUse" x="0" y="0" width="72" height="72">
   <rect x="0" y="0" width="73" height="73" fill="#ff7f50"/>
   <path d="M -36 36 
L 36 -36 
M -32 40 
L 40 -32 
M -28 44 
L 44 -28 
M -24 48 
L 48 -24 
M -20 52 
L 52 -20 
M -16 56 
L 56 -16 
M -12 60 
L 60 -12 
M -8 64 
L 64 -8 
M -4 68 
L 68 -4 
M 0 72 
L 72 0 
M 4 76 
L 76 4 
M 8 80 
L 80 8 
M 12 84 
L 84 12 
M 16 88 
L 88 16 
M 20 92 
L 92 20 
M 24 96 
L 96 24 
M 28 100 
L 100 28 
M 32 104 
L 104 32 
M 36 108 
L 108 36 
" style="fill: #ff7f50; stroke: #ff7f50; stroke-width: 1.0; stroke-linecap: butt; stroke-linejoin: miter; stroke-opacity: 0.15"/>
  </pattern>
  <pattern id="hfb35f5a89e" patternUnits="userSpaceOnUse" x="0" y="0" width="72" height="72">
   <rect x="0" y="0" width="73" height="73" fill="#1e90ff"/>
   <path d="M -36 36 
L 36 108 
M -32 32 
L 40 104 
M -28 28 
L 44 100 
M -24 24 
L 48 96 
M -20 20 
L 52 92 
M -16 16 
L 56 88 
M -12 12 
L 60 84 
M -8 8 
L 64 80 
M -4 4 
L 68 76 
M 0 0 
L 72 72 
M 4 -4 
L 76 68 
M 8 -8 
L 80 64 
M 12 -12 
L 84 60 
M 16 -16 
L 88 56 
M 20 -20 
L 92 52 
M 24 -24 
L 96 48 
M 28 -28 
L 100 44 
M 32 -32 
L 104 40 
M 36 -36 
L 108 36 
" style="fill: #1e90ff; stroke: #1e90ff; stroke-width: 1.0; stroke-linecap: butt; stroke-linejoin: miter; stroke-opacity: 0.15"/>
  </pattern>
 </defs>
</svg>
