<?xml version="1.0" encoding="utf-8" standalone="no"?>
<!DOCTYPE svg PUBLIC "-//W3C//DTD SVG 1.1//EN"
  "http://www.w3.org/Graphics/SVG/1.1/DTD/svg11.dtd">
<svg xmlns:xlink="http://www.w3.org/1999/xlink" width="125.28pt" height="110.88pt" viewBox="0 0 125.28 110.88" xmlns="http://www.w3.org/2000/svg" version="1.1">
 <metadata>
  <rdf:RDF xmlns:dc="http://purl.org/dc/elements/1.1/" xmlns:cc="http://creativecommons.org/ns#" xmlns:rdf="http://www.w3.org/1999/02/22-rdf-syntax-ns#">
   <cc:Work>
    <dc:type rdf:resource="http://purl.org/dc/dcmitype/StillImage"/>
    <dc:date>2025-03-07T10:30:31.348462</dc:date>
    <dc:format>image/svg+xml</dc:format>
    <dc:creator>
     <cc:Agent>
      <dc:title>Matplotlib v3.9.2, https://matplotlib.org/</dc:title>
     </cc:Agent>
    </dc:creator>
   </cc:Work>
  </rdf:RDF>
 </metadata>
 <defs>
  <style type="text/css">*{stroke-linejoin: round; stroke-linecap: butt}</style>
 </defs>
 <g id="figure_1">
  <g id="patch_1">
   <path d="M 0 110.88 
L 125.28 110.88 
L 125.28 0 
L 0 0 
z
" style="fill: #ffffff"/>
  </g>
  <g id="axes_1">
   <g id="patch_2">
    <path d="M 4.94 105.94 
L 123.84 105.94 
L 123.84 18.509588 
L 4.94 18.509588 
z
" style="fill: #ffffff"/>
   </g>
   <g id="line2d_1">
    <path d="M 4.94 53.075712 
L 123.84 53.075712 
" clip-path="url(#p77a79ba4c8)" style="fill: none; stroke-dasharray: 5.55,2.4; stroke-dashoffset: 0; stroke: #808080; stroke-width: 1.5"/>
   </g>
   <g id="line2d_2">
    <path d="M 4.94 103.289519 
L 123.84 103.289519 
" clip-path="url(#p77a79ba4c8)" style="fill: none; stroke: #d3d3d3; stroke-width: 1.5; stroke-linecap: square"/>
   </g>
   <g id="PolyCollection_1">
    <path d="M 10.344545 103.289519 
L 10.344545 53.080226 
L 11.189006 54.296291 
L 12.455696 60.994387 
L 12.877926 61.596859 
L 14.566847 61.374798 
L 15.411307 62.376785 
L 16.677997 65.273186 
L 17.522457 66.044474 
L 18.789148 66.101216 
L 19.633608 66.491619 
L 20.478068 64.820257 
L 22.166989 64.238261 
L 23.011449 65.116261 
L 24.278139 68.848245 
L 25.122599 68.798831 
L 25.96706 61.694108 
L 26.81152 61.716682 
L 28.50044 64.302377 
L 29.344901 65.380716 
L 30.189361 64.980571 
L 31.878281 63.051974 
L 32.300511 64.828309 
L 33.989432 61.100859 
L 36.100582 57.759039 
L 36.522813 55.431385 
L 38.211733 53.410226 
L 39.056193 54.784286 
L 41.589574 59.102608 
L 42.011804 60.372042 
L 43.700724 60.08001 
L 45.389645 58.13973 
L 49.189716 56.522236 
L 52.989787 63.872346 
L 54.678707 63.057728 
L 56.789858 60.363081 
L 58.901009 63.776523 
L 60.589929 61.873091 
L 63.12331 60.967274 
L 64.81223 61.341291 
L 65.65669 64.581924 
L 69.034531 66.898239 
L 70.723452 67.119721 
L 72.412372 65.769707 
L 74.101293 61.769411 
L 77.479134 66.515544 
L 79.168054 67.483146 
L 80.012514 69.872888 
L 83.390355 72.896109 
L 85.079276 73.321002 
L 86.768196 74.000634 
L 88.457116 70.509129 
L 89.301577 75.656752 
L 90.990497 69.018261 
L 91.834957 68.128672 
L 95.212798 69.05388 
L 96.057259 70.24358 
L 99.435099 73.821896 
L 101.12402 75.856959 
L 105.346321 73.103954 
L 106.190781 68.089681 
L 107.457472 71.093366 
L 108.301932 92.35998 
L 109.146392 92.386194 
L 110.835313 97.230519 
L 111.679773 102.722471 
L 112.524233 102.536587 
L 113.368693 102.593861 
L 115.057614 102.87833 
L 115.902074 102.836788 
L 117.168764 102.699698 
L 118.435455 103.127043 
L 118.435455 103.289519 
L 118.435455 103.289519 
L 117.168764 103.289519 
L 115.902074 103.289519 
L 115.057614 103.289519 
L 113.368693 103.289519 
L 112.524233 103.289519 
L 111.679773 103.289519 
L 110.835313 103.289519 
L 109.146392 103.289519 
L 108.301932 103.289519 
L 107.457472 103.289519 
L 106.190781 103.289519 
L 105.346321 103.289519 
L 101.12402 103.289519 
L 99.435099 103.289519 
L 96.057259 103.289519 
L 95.212798 103.289519 
L 91.834957 103.289519 
L 90.990497 103.289519 
L 89.301577 103.289519 
L 88.457116 103.289519 
L 86.768196 103.289519 
L 85.079276 103.289519 
L 83.390355 103.289519 
L 80.012514 103.289519 
L 79.168054 103.289519 
L 77.479134 103.289519 
L 74.101293 103.289519 
L 72.412372 103.289519 
L 70.723452 103.289519 
L 69.034531 103.289519 
L 65.65669 103.289519 
L 64.81223 103.289519 
L 63.12331 103.289519 
L 60.589929 103.289519 
L 58.901009 103.289519 
L 56.789858 103.289519 
L 54.678707 103.289519 
L 52.989787 103.289519 
L 49.189716 103.289519 
L 45.389645 103.289519 
L 43.700724 103.289519 
L 42.011804 103.289519 
L 41.589574 103.289519 
L 39.056193 103.289519 
L 38.211733 103.289519 
L 36.522813 103.289519 
L 36.100582 103.289519 
L 33.989432 103.289519 
L 32.300511 103.289519 
L 31.878281 103.289519 
L 30.189361 103.289519 
L 29.344901 103.289519 
L 28.50044 103.289519 
L 26.81152 103.289519 
L 25.96706 103.289519 
L 25.122599 103.289519 
L 24.278139 103.289519 
L 23.011449 103.289519 
L 22.166989 103.289519 
L 20.478068 103.289519 
L 19.633608 103.289519 
L 18.789148 103.289519 
L 17.522457 103.289519 
L 16.677997 103.289519 
L 15.411307 103.289519 
L 14.566847 103.289519 
L 12.877926 103.289519 
L 12.455696 103.289519 
L 11.189006 103.289519 
L 10.344545 103.289519 
z
" clip-path="url(#p77a79ba4c8)" style="fill: url(#h8f3105c9ab); fill-opacity: 0.15; stroke: #ff7f50; stroke-opacity: 0.15"/>
   </g>
   <g id="PolyCollection_2">
    <path d="M 10.344545 103.289519 
L 10.344545 53.080226 
L 11.255787 55.527889 
L 12.464313 58.126928 
L 13.522042 59.16095 
L 14.642245 60.322958 
L 15.488859 56.899305 
L 16.671534 57.205116 
L 17.88006 50.279902 
L 18.890397 60.929102 
L 19.956743 75.827674 
L 21.014473 87.21781 
L 22.098053 88.904795 
L 23.104081 92.296415 
L 23.789128 92.045324 
L 24.851166 93.018627 
L 26.50131 92.130435 
L 26.733967 92.893628 
L 28.259166 93.953746 
L 29.403065 95.984082 
L 48.05228 96.679226 
L 48.603764 98.489885 
L 74.312408 101.427166 
L 89.140009 101.676687 
L 111.186453 102.406289 
L 112.754736 102.599311 
L 114.333791 102.357177 
L 116.003323 102.703521 
L 117.005042 102.949676 
L 118.435455 103.127006 
L 118.435455 103.289519 
L 118.435455 103.289519 
L 117.005042 103.289519 
L 116.003323 103.289519 
L 114.333791 103.289519 
L 112.754736 103.289519 
L 111.186453 103.289519 
L 89.140009 103.289519 
L 74.312408 103.289519 
L 48.603764 103.289519 
L 48.05228 103.289519 
L 29.403065 103.289519 
L 28.259166 103.289519 
L 26.733967 103.289519 
L 26.50131 103.289519 
L 24.851166 103.289519 
L 23.789128 103.289519 
L 23.104081 103.289519 
L 22.098053 103.289519 
L 21.014473 103.289519 
L 19.956743 103.289519 
L 18.890397 103.289519 
L 17.88006 103.289519 
L 16.671534 103.289519 
L 15.488859 103.289519 
L 14.642245 103.289519 
L 13.522042 103.289519 
L 12.464313 103.289519 
L 11.255787 103.289519 
L 10.344545 103.289519 
z
" clip-path="url(#p77a79ba4c8)" style="fill: url(#he202e71524); fill-opacity: 0.15; stroke: #1e90ff; stroke-opacity: 0.15"/>
   </g>
   <g id="matplotlib.axis_1">
    <g id="xtick_1">
     <g id="line2d_3">
      <defs>
       <path id="m958fcfc37c" d="M 0 0 
L 0 3.5 
" style="stroke: #000000; stroke-width: 0.8"/>
      </defs>
      <g>
       <use xlink:href="#m958fcfc37c" x="10.344545" y="105.94" style="stroke: #000000; stroke-width: 0.8"/>
      </g>
     </g>
    </g>
    <g id="xtick_2">
     <g id="line2d_4">
      <g>
       <use xlink:href="#m958fcfc37c" x="64.39" y="105.94" style="stroke: #000000; stroke-width: 0.8"/>
      </g>
     </g>
    </g>
    <g id="xtick_3">
     <g id="line2d_5">
      <g>
       <use xlink:href="#m958fcfc37c" x="118.435455" y="105.94" style="stroke: #000000; stroke-width: 0.8"/>
      </g>
     </g>
    </g>
   </g>
   <g id="matplotlib.axis_2">
    <g id="ytick_1">
     <g id="line2d_6">
      <defs>
       <path id="mab0ca8eb82" d="M 0 0 
L -3.5 0 
" style="stroke: #000000; stroke-width: 0.8"/>
      </defs>
      <g>
       <use xlink:href="#mab0ca8eb82" x="4.94" y="103.289519" style="stroke: #000000; stroke-width: 0.8"/>
      </g>
     </g>
    </g>
    <g id="ytick_2">
     <g id="line2d_7">
      <g>
       <use xlink:href="#mab0ca8eb82" x="4.94" y="75.029542" style="stroke: #000000; stroke-width: 0.8"/>
      </g>
     </g>
    </g>
    <g id="ytick_3">
     <g id="line2d_8">
      <g>
       <use xlink:href="#mab0ca8eb82" x="4.94" y="46.769565" style="stroke: #000000; stroke-width: 0.8"/>
      </g>
     </g>
    </g>
    <g id="ytick_4">
     <g id="line2d_9">
      <g>
       <use xlink:href="#mab0ca8eb82" x="4.94" y="18.509588" style="stroke: #000000; stroke-width: 0.8"/>
      </g>
     </g>
    </g>
   </g>
   <g id="line2d_10">
    <path d="M 10.344545 53.080226 
L 11.189006 54.296291 
L 12.455696 60.994387 
L 12.877926 61.596859 
L 14.566847 61.374798 
L 15.411307 62.376785 
L 16.677997 65.273186 
L 17.522457 66.044474 
L 18.789148 66.101216 
L 19.633608 66.491619 
L 20.478068 64.820257 
L 22.166989 64.238261 
L 23.011449 65.116261 
L 24.278139 68.848245 
L 25.122599 68.798831 
L 25.96706 61.694108 
L 26.81152 61.716682 
L 28.50044 64.302377 
L 29.344901 65.380716 
L 30.189361 64.980571 
L 31.878281 63.051974 
L 32.300511 64.828309 
L 33.989432 61.100859 
L 36.100582 57.759039 
L 36.522813 55.431385 
L 38.211733 53.410226 
L 39.056193 54.784286 
L 41.589574 59.102608 
L 42.011804 60.372042 
L 43.700724 60.08001 
L 45.389645 58.13973 
L 49.189716 56.522236 
L 52.989787 63.872346 
L 54.678707 63.057728 
L 56.789858 60.363081 
L 58.901009 63.776523 
L 60.589929 61.873091 
L 63.12331 60.967274 
L 64.81223 61.341291 
L 65.65669 64.581924 
L 69.034531 66.898239 
L 70.723452 67.119721 
L 72.412372 65.769707 
L 74.101293 61.769411 
L 77.479134 66.515544 
L 79.168054 67.483146 
L 80.012514 69.872888 
L 83.390355 72.896109 
L 85.079276 73.321002 
L 86.768196 74.000634 
L 88.457116 70.509129 
L 89.301577 75.656752 
L 90.990497 69.018261 
L 91.834957 68.128672 
L 95.212798 69.05388 
L 96.057259 70.24358 
L 99.435099 73.821896 
L 101.12402 75.856959 
L 105.346321 73.103954 
L 106.190781 68.089681 
L 107.457472 71.093366 
L 108.301932 92.35998 
L 109.146392 92.386194 
L 110.835313 97.230519 
L 111.679773 102.722471 
L 112.524233 102.536587 
L 113.368693 102.593861 
L 115.057614 102.87833 
L 115.902074 102.836788 
L 117.168764 102.699698 
L 118.435455 103.127043 
" clip-path="url(#p77a79ba4c8)" style="fill: none; stroke: #ff7f50; stroke-width: 1.5; stroke-linecap: square"/>
   </g>
   <g id="line2d_11">
    <path d="M 10.344545 53.080226 
L 11.255787 55.527889 
L 12.464313 58.126928 
L 13.522042 59.16095 
L 14.642245 60.322958 
L 15.488859 56.899305 
L 16.671534 57.205116 
L 17.88006 50.279902 
L 18.890397 60.929102 
L 19.956743 75.827674 
L 21.014473 87.21781 
L 22.098053 88.904795 
L 23.104081 92.296415 
L 23.789128 92.045324 
L 24.851166 93.018627 
L 26.50131 92.130435 
L 26.733967 92.893628 
L 28.259166 93.953746 
L 29.403065 95.984082 
L 48.05228 96.679226 
L 48.603764 98.489885 
L 74.312408 101.427166 
L 89.140009 101.676687 
L 111.186453 102.406289 
L 112.754736 102.599311 
L 114.333791 102.357177 
L 116.003323 102.703521 
L 117.005042 102.949676 
L 118.435455 103.127006 
" clip-path="url(#p77a79ba4c8)" style="fill: none; stroke: #1e90ff; stroke-opacity: 0.8; stroke-width: 1.5; stroke-linecap: square"/>
   </g>
   <g id="patch_3">
    <path d="M 4.94 105.94 
L 4.94 18.509588 
" style="fill: none; stroke: #000000; stroke-width: 0.8; stroke-linejoin: miter; stroke-linecap: square"/>
   </g>
   <g id="patch_4">
    <path d="M 123.84 105.94 
L 123.84 18.509588 
" style="fill: none; stroke: #000000; stroke-width: 0.8; stroke-linejoin: miter; stroke-linecap: square"/>
   </g>
   <g id="patch_5">
    <path d="M 4.94 105.94 
L 123.84 105.94 
" style="fill: none; stroke: #000000; stroke-width: 0.8; stroke-linejoin: miter; stroke-linecap: square"/>
   </g>
   <g id="patch_6">
    <path d="M 4.94 18.509588 
L 123.84 18.509588 
" style="fill: none; stroke: #000000; stroke-width: 0.8; stroke-linejoin: miter; stroke-linecap: square"/>
   </g>
   <g id="text_1">
    <!-- $\mathit{AUC}^{-}$ -->
    <g transform="translate(41.922229 12.509588) scale(0.16 -0.16)">
     <defs>
      <path id="CMTI12-41" d="M 1178 718 
C 979 365 800 218 480 186 
C 410 180 358 173 358 64 
C 358 0 422 0 435 0 
C 589 0 762 0 922 0 
C 1094 0 1280 0 1446 0 
C 1491 0 1562 0 1562 126 
C 1562 186 1510 192 1472 192 
C 1318 192 1229 268 1229 388 
C 1229 477 1280 559 1338 661 
L 1805 1478 
L 3290 1478 
L 3360 463 
C 3366 362 3379 192 2982 192 
C 2893 192 2835 192 2835 66 
C 2835 0 2899 0 2925 0 
C 3136 0 3366 0 3584 0 
C 3795 0 4013 0 4218 0 
C 4256 0 4333 0 4333 119 
C 4333 192 4288 192 4205 192 
C 3891 192 3859 235 3846 394 
L 3565 4422 
C 3558 4557 3552 4576 3462 4576 
C 3373 4576 3354 4538 3309 4461 
L 1178 718 
z
M 1914 1664 
L 3130 3814 
L 3277 1664 
L 1914 1664 
z
" transform="scale(0.015625)"/>
      <path id="CMTI12-55" d="M 4614 3725 
C 4717 4128 4986 4166 5222 4166 
C 5248 4166 5318 4166 5318 4279 
C 5318 4352 5261 4352 5235 4352 
C 5062 4352 4864 4352 4685 4352 
C 4307 4352 4128 4352 4122 4352 
C 4077 4352 4006 4352 4006 4230 
C 4006 4172 4058 4166 4102 4166 
C 4339 4166 4467 4096 4467 3905 
C 4467 3848 4454 3771 4442 3733 
L 3872 1453 
C 3686 719 3046 57 2400 57 
C 2035 57 1715 312 1715 859 
C 1715 1005 1741 1208 1779 1349 
L 2419 3898 
C 2477 4115 2515 4166 2912 4166 
C 3021 4166 3078 4166 3078 4282 
C 3078 4352 3021 4352 2989 4352 
C 2765 4352 2528 4352 2298 4352 
C 2061 4352 1818 4352 1587 4352 
C 1536 4352 1466 4352 1466 4230 
C 1466 4166 1510 4166 1632 4166 
C 1792 4166 1971 4166 1971 4064 
C 1971 4026 1971 4007 1958 3969 
L 1331 1462 
C 1280 1259 1280 1138 1280 1042 
C 1280 291 1798 -128 2374 -128 
C 3149 -128 3853 669 4038 1416 
L 4614 3725 
z
" transform="scale(0.015625)"/>
      <path id="CMTI12-43" d="M 5088 4341 
C 5094 4360 5101 4410 5101 4423 
C 5101 4480 5056 4480 5043 4480 
C 5030 4480 5005 4480 4960 4423 
L 4544 3914 
C 4339 4289 4013 4480 3597 4480 
C 2304 4480 947 3056 947 1550 
C 947 469 1651 -128 2464 -128 
C 3162 -128 3667 368 3718 412 
C 4275 959 4378 1518 4378 1531 
C 4378 1588 4326 1588 4288 1588 
C 4237 1588 4211 1582 4192 1524 
C 3904 552 3155 57 2560 57 
C 1978 57 1453 464 1453 1327 
C 1453 1505 1523 2592 2144 3443 
C 2470 3882 3053 4295 3642 4295 
C 4467 4295 4544 3411 4544 3131 
C 4544 3036 4531 2890 4512 2795 
L 4512 2738 
C 4512 2681 4563 2681 4595 2681 
C 4659 2681 4672 2687 4698 2789 
L 5088 4341 
z
" transform="scale(0.015625)"/>
      <path id="CMSY10-0" d="M 4218 1472 
C 4326 1472 4442 1472 4442 1600 
C 4442 1728 4326 1728 4218 1728 
L 755 1728 
C 646 1728 531 1728 531 1600 
C 531 1472 646 1472 755 1472 
L 4218 1472 
z
" transform="scale(0.015625)"/>
     </defs>
     <use xlink:href="#CMTI12-41" transform="scale(0.996264)"/>
     <use xlink:href="#CMTI12-55" transform="translate(69.92373 0) scale(0.996264)"/>
     <use xlink:href="#CMTI12-43" transform="translate(142.33818 0) scale(0.996264)"/>
     <use xlink:href="#CMSY10-0" transform="translate(226.606205 41.151544) scale(0.697382)"/>
    </g>
   </g>
   <g id="legend_1">
    <g id="patch_7">
     <path d="M 31.250191 46.383945 
L 116.84 46.383945 
Q 118.84 46.383945 118.84 44.383945 
L 118.84 25.509588 
Q 118.84 23.509588 116.84 23.509588 
L 31.250191 23.509588 
Q 29.250191 23.509588 29.250191 25.509588 
L 29.250191 44.383945 
Q 29.250191 46.383945 31.250191 46.383945 
z
" style="fill: #ffffff; opacity: 0.8; stroke: #cccccc; stroke-linejoin: miter"/>
    </g>
    <g id="line2d_12">
     <path d="M 31.250191 29.009588 
L 41.250191 29.009588 
L 51.250191 29.009588 
" style="fill: none; stroke: #ff7f50; stroke-width: 1.5; stroke-linecap: square"/>
    </g>
    <g id="text_2">
     <!-- {AA} 0.3082 -->
     <g transform="translate(59.250191 32.509588) scale(0.1 -0.1)">
      <defs>
       <path id="CMSS17-41" d="M 2272 4416 
L 1722 4416 
L 166 0 
L 653 0 
L 1101 1280 
L 2816 1280 
L 3270 0 
L 3827 0 
L 2272 4416 
z
M 2694 1637 
L 1222 1637 
C 1530 2528 1914 3638 1958 3925 
L 1965 3925 
C 2010 3663 2138 3281 2246 2956 
L 2694 1637 
z
" transform="scale(0.015625)"/>
       <path id="CMSS17-30" d="M 2758 2044 
C 2758 2405 2752 3077 2490 3596 
C 2227 4096 1805 4229 1504 4229 
C 1069 4229 698 3975 506 3570 
C 301 3146 243 2709 243 2044 
C 243 1589 262 1031 493 543 
C 755 5 1197 -128 1498 -128 
C 1894 -128 2278 81 2496 518 
C 2720 974 2758 1474 2758 2044 
z
M 1498 261 
C 1011 261 864 811 819 995 
C 742 1310 730 1614 730 2114 
C 730 2506 730 2948 851 3297 
C 998 3701 1254 3840 1498 3840 
C 1971 3840 2125 3372 2176 3208 
C 2272 2873 2272 2481 2272 2114 
C 2272 1526 2272 261 1498 261 
z
" transform="scale(0.015625)"/>
       <path id="CMSS17-2e" d="M 1088 510 
L 576 510 
L 576 0 
L 1088 0 
L 1088 510 
z
" transform="scale(0.015625)"/>
       <path id="CMSS17-33" d="M 1005 2025 
L 1440 2025 
C 2042 2025 2214 1507 2214 1146 
C 2214 653 1933 267 1472 267 
C 1114 267 608 444 320 912 
C 275 691 275 678 250 526 
C 550 88 1037 -128 1485 -128 
C 2214 -128 2752 473 2752 1138 
C 2752 1638 2400 2057 1920 2215 
C 2304 2424 2586 2816 2586 3273 
C 2586 3805 2093 4229 1491 4229 
C 941 4229 512 3892 333 3530 
C 378 3468 493 3284 550 3189 
C 691 3562 1056 3840 1485 3840 
C 1843 3840 2080 3607 2080 3271 
C 2080 2923 1856 2543 1478 2455 
C 1453 2455 1056 2417 1005 2411 
L 1005 2025 
z
" transform="scale(0.015625)"/>
       <path id="CMSS17-38" d="M 1933 2222 
C 2419 2380 2669 2760 2669 3134 
C 2669 3722 2157 4229 1504 4229 
C 826 4229 333 3708 333 3144 
C 333 2780 576 2403 1069 2241 
C 442 1997 250 1512 250 1149 
C 250 446 819 -128 1498 -128 
C 2202 -128 2752 455 2752 1138 
C 2752 1557 2502 2000 1933 2222 
z
M 1504 2432 
C 1075 2432 787 2712 787 3136 
C 787 3566 1075 3840 1504 3840 
C 1901 3840 2214 3591 2214 3136 
C 2214 2687 1907 2432 1504 2432 
z
M 1504 267 
C 1139 267 749 517 749 1156 
C 749 1813 1184 2043 1498 2043 
C 1843 2043 2253 1800 2253 1156 
C 2253 491 1830 267 1504 267 
z
" transform="scale(0.015625)"/>
       <path id="CMSS17-32" d="M 1651 1357 
C 1830 1541 2099 1764 2285 1987 
C 2464 2204 2701 2511 2701 2957 
C 2701 3657 2227 4288 1421 4288 
C 787 4288 422 3893 250 3274 
L 499 2929 
C 640 3510 838 3880 1338 3880 
C 1888 3880 2195 3433 2195 2942 
C 2195 2355 1747 1901 1408 1563 
C 1030 1187 659 804 301 408 
L 301 0 
L 2701 0 
L 2701 433 
L 1613 433 
C 1536 433 1459 433 1382 433 
L 742 433 
L 742 439 
L 1651 1357 
z
" transform="scale(0.015625)"/>
      </defs>
      <use xlink:href="#CMSS17-41" transform="scale(0.996264)"/>
      <use xlink:href="#CMSS17-41" transform="translate(62.217855 0) scale(0.996264)"/>
      <use xlink:href="#CMSS17-30" transform="translate(155.664823 0) scale(0.996264)"/>
      <use xlink:href="#CMSS17-2e" transform="translate(202.508446 0) scale(0.996264)"/>
      <use xlink:href="#CMSS17-33" transform="translate(228.532651 0) scale(0.996264)"/>
      <use xlink:href="#CMSS17-30" transform="translate(275.376275 0) scale(0.996264)"/>
      <use xlink:href="#CMSS17-38" transform="translate(322.219898 0) scale(0.996264)"/>
      <use xlink:href="#CMSS17-32" transform="translate(369.063522 0) scale(0.996264)"/>
     </g>
    </g>
    <g id="line2d_13">
     <path d="M 31.250191 38.946767 
L 41.250191 38.946767 
L 51.250191 38.946767 
" style="fill: none; stroke: #1e90ff; stroke-opacity: 0.8; stroke-width: 1.5; stroke-linecap: square"/>
    </g>
    <g id="text_3">
     <!-- \textbf{BPT} 0.06769 -->
     <g transform="translate(59.250191 42.446767) scale(0.1 -0.1)">
      <defs>
       <path id="CMSSBX10-42" d="M 890 4480 
C 659 4480 582 4410 582 4173 
L 582 346 
C 582 116 653 39 890 39 
L 2643 39 
C 3117 39 4294 39 4294 1229 
C 4294 2156 3405 2300 3168 2340 
C 3757 2475 4096 2812 4096 3316 
C 4096 4480 2733 4480 2464 4480 
L 890 4480 
z
M 1485 2560 
L 1485 3911 
L 2234 3911 
C 2483 3911 3226 3911 3226 3300 
C 3226 2560 2387 2560 2227 2560 
L 1485 2560 
z
M 1485 576 
L 1485 2094 
L 2291 2094 
C 2515 2094 3405 2094 3405 1251 
C 3405 576 2720 576 2413 576 
L 1485 576 
z
" transform="scale(0.015625)"/>
       <path id="CMSSBX10-50" d="M 1523 1728 
L 2496 1728 
C 3501 1728 4102 2155 4102 3085 
C 4102 4060 3475 4480 2490 4480 
L 890 4480 
C 659 4480 582 4409 582 4170 
L 582 298 
C 582 66 653 -12 890 -12 
L 1216 -12 
C 1459 -12 1523 72 1523 299 
L 1523 1728 
z
M 2291 3924 
C 3130 3924 3213 3537 3213 3085 
C 3213 2652 3142 2239 2285 2239 
L 1504 2239 
L 1504 3924 
L 2291 3924 
z
" transform="scale(0.015625)"/>
       <path id="CMSSBX10-54" d="M 1875 3776 
L 1875 308 
C 1875 78 1946 0 2182 0 
L 2509 0 
C 2752 0 2816 84 2816 308 
L 2816 3776 
C 3098 3776 3814 3776 4096 3776 
C 4275 3776 4429 3776 4429 4083 
L 4429 4135 
C 4429 4340 4384 4443 4122 4443 
L 563 4443 
C 333 4443 256 4372 256 4135 
L 256 4083 
C 256 3776 410 3776 589 3776 
L 1875 3776 
z
" transform="scale(0.015625)"/>
       <path id="CMSS17-36" d="M 2496 4101 
C 2227 4210 2035 4229 1856 4229 
C 1024 4229 250 3368 250 2006 
C 250 265 986 -128 1510 -128 
C 1798 -128 2086 -39 2362 280 
C 2643 617 2752 898 2752 1389 
C 2752 2179 2362 2880 1779 2880 
C 1357 2880 992 2657 768 2376 
C 832 3258 1254 3840 1862 3840 
C 2029 3840 2246 3816 2496 3710 
L 2496 4101 
z
M 774 1369 
C 774 1420 774 1452 781 1548 
C 781 2045 1069 2491 1536 2491 
C 1837 2491 1990 2332 2106 2135 
C 2240 1886 2246 1650 2246 1388 
C 2246 1140 2246 891 2099 637 
C 1978 439 1818 267 1510 267 
C 902 267 800 1114 774 1369 
z
" transform="scale(0.015625)"/>
       <path id="CMSS17-37" d="M 1389 3776 
C 1466 3776 1542 3776 1619 3776 
L 2355 3776 
C 1440 2711 915 1365 915 -32 
L 1427 -32 
C 1427 1323 1875 2696 2752 3795 
L 2752 4209 
L 250 4209 
L 250 3776 
L 1389 3776 
z
" transform="scale(0.015625)"/>
       <path id="CMSS17-39" d="M 435 174 
C 614 21 845 -128 1235 -128 
C 2010 -128 2752 721 2752 2095 
C 2752 3932 1952 4229 1523 4229 
C 1094 4229 819 4041 582 3741 
C 301 3397 250 3090 250 2733 
C 250 2307 326 2045 506 1745 
C 749 1357 973 1275 1222 1275 
C 1600 1275 1978 1459 2234 1776 
C 2189 902 1798 267 1235 267 
C 1005 267 819 339 634 516 
L 435 174 
z
M 2214 2746 
C 2221 2703 2221 2622 2221 2596 
C 2221 2074 1914 1664 1466 1664 
C 1171 1664 1018 1813 902 2006 
C 762 2249 755 2485 755 2733 
C 755 2976 755 3244 934 3511 
C 1069 3703 1235 3840 1523 3840 
C 2112 3840 2208 3000 2214 2746 
z
" transform="scale(0.015625)"/>
      </defs>
      <use xlink:href="#CMSSBX10-42" transform="scale(0.996264)"/>
      <use xlink:href="#CMSSBX10-50" transform="translate(73.059766 0) scale(0.996264)"/>
      <use xlink:href="#CMSSBX10-54" transform="translate(143.075375 0) scale(0.996264)"/>
      <use xlink:href="#CMSS17-30" transform="translate(247.364254 0) scale(0.996264)"/>
      <use xlink:href="#CMSS17-2e" transform="translate(294.207878 0) scale(0.996264)"/>
      <use xlink:href="#CMSS17-30" transform="translate(320.232083 0) scale(0.996264)"/>
      <use xlink:href="#CMSS17-36" transform="translate(367.075706 0) scale(0.996264)"/>
      <use xlink:href="#CMSS17-37" transform="translate(413.91933 0) scale(0.996264)"/>
      <use xlink:href="#CMSS17-36" transform="translate(460.762953 0) scale(0.996264)"/>
      <use xlink:href="#CMSS17-39" transform="translate(507.606577 0) scale(0.996264)"/>
     </g>
    </g>
   </g>
  </g>
 </g>
 <defs>
  <clipPath id="p77a79ba4c8">
   <rect x="4.94" y="18.509588" width="118.9" height="87.430412"/>
  </clipPath>
 </defs>
 <defs>
  <pattern id="h8f3105c9ab" patternUnits="userSpaceOnUse" x="0" y="0" width="72" height="72">
   <rect x="0" y="0" width="73" height="73" fill="#ff7f50"/>
   <path d="M -36 36 
L 36 -36 
M -32 40 
L 40 -32 
M -28 44 
L 44 -28 
M -24 48 
L 48 -24 
M -20 52 
L 52 -20 
M -16 56 
L 56 -16 
M -12 60 
L 60 -12 
M -8 64 
L 64 -8 
M -4 68 
L 68 -4 
M 0 72 
L 72 0 
M 4 76 
L 76 4 
M 8 80 
L 80 8 
M 12 84 
L 84 12 
M 16 88 
L 88 16 
M 20 92 
L 92 20 
M 24 96 
L 96 24 
M 28 100 
L 100 28 
M 32 104 
L 104 32 
M 36 108 
L 108 36 
" style="fill: #ff7f50; stroke: #ff7f50; stroke-width: 1.0; stroke-linecap: butt; stroke-linejoin: miter; stroke-opacity: 0.15"/>
  </pattern>
  <pattern id="he202e71524" patternUnits="userSpaceOnUse" x="0" y="0" width="72" height="72">
   <rect x="0" y="0" width="73" height="73" fill="#1e90ff"/>
   <path d="M -36 36 
L 36 108 
M -32 32 
L 40 104 
M -28 28 
L 44 100 
M -24 24 
L 48 96 
M -20 20 
L 52 92 
M -16 16 
L 56 88 
M -12 12 
L 60 84 
M -8 8 
L 64 80 
M -4 4 
L 68 76 
M 0 0 
L 72 72 
M 4 -4 
L 76 68 
M 8 -8 
L 80 64 
M 12 -12 
L 84 60 
M 16 -16 
L 88 56 
M 20 -20 
L 92 52 
M 24 -24 
L 96 48 
M 28 -28 
L 100 44 
M 32 -32 
L 104 40 
M 36 -36 
L 108 36 
" style="fill: #1e90ff; stroke: #1e90ff; stroke-width: 1.0; stroke-linecap: butt; stroke-linejoin: miter; stroke-opacity: 0.15"/>
  </pattern>
 </defs>
</svg>
